<svg width="199" height="10" viewBox="0 0 199 10" fill="none" xmlns="http://www.w3.org/2000/svg">
<path d="M9.3476 2.94957L6.3996 4.57757L6.3996 4.09357L9.3476 5.72157L8.4896 7.21757L5.6516 5.56757L5.9376 5.41357L5.9596 8.55957L4.2876 8.55957L4.3096 5.41357L4.5956 5.56757L1.7796 7.21757L0.899597 5.72157L3.8696 4.09357L3.8696 4.57757L0.899597 2.94957L1.7796 1.43157L4.5956 3.10357L4.3096 3.27957L4.2876 0.111572L5.9596 0.111572L5.9376 3.27957L5.6516 3.10357L8.4896 1.43157L9.3476 2.94957Z" fill="white"/>
<path d="M18.9296 2.94957L15.9816 4.57757L15.9816 4.09357L18.9296 5.72157L18.0716 7.21757L15.2336 5.56757L15.5196 5.41357L15.5416 8.55957L13.8696 8.55957L13.8916 5.41357L14.1776 5.56757L11.3616 7.21757L10.4816 5.72157L13.4516 4.09357L13.4516 4.57757L10.4816 2.94957L11.3616 1.43157L14.1776 3.10357L13.8916 3.27957L13.8696 0.111572L15.5416 0.111573L15.5196 3.27957L15.2336 3.10357L18.0716 1.43157L18.9296 2.94957Z" fill="white"/>
<path d="M28.5117 2.94957L25.5637 4.57757L25.5637 4.09357L28.5117 5.72157L27.6537 7.21757L24.8157 5.56757L25.1017 5.41357L25.1237 8.55957L23.4517 8.55957L23.4737 5.41357L23.7597 5.56757L20.9437 7.21757L20.0637 5.72157L23.0337 4.09357L23.0337 4.57757L20.0637 2.94957L20.9437 1.43157L23.7597 3.10357L23.4737 3.27957L23.4517 0.111573L25.1237 0.111573L25.1017 3.27957L24.8157 3.10357L27.6537 1.43157L28.5117 2.94957Z" fill="white"/>
<path d="M38.0937 2.94957L35.1457 4.57757L35.1457 4.09357L38.0937 5.72157L37.2357 7.21757L34.3977 5.56757L34.6837 5.41357L34.7057 8.55957L33.0337 8.55957L33.0557 5.41357L33.3417 5.56757L30.5257 7.21757L29.6457 5.72157L32.6157 4.09357L32.6157 4.57757L29.6457 2.94957L30.5257 1.43157L33.3417 3.10357L33.0557 3.27957L33.0337 0.111573L34.7057 0.111573L34.6837 3.27957L34.3977 3.10357L37.2357 1.43157L38.0937 2.94957Z" fill="white"/>
<path d="M58.5417 2.94957L55.5937 4.57757L55.5937 4.09357L58.5417 5.72157L57.6837 7.21757L54.8457 5.56757L55.1317 5.41357L55.1537 8.55957L53.4817 8.55957L53.5037 5.41357L53.7897 5.56757L50.9737 7.21757L50.0937 5.72157L53.0637 4.09357L53.0637 4.57757L50.0937 2.94957L50.9737 1.43157L53.7897 3.10357L53.5037 3.27957L53.4817 0.111572L55.1537 0.111572L55.1317 3.27957L54.8457 3.10357L57.6837 1.43157L58.5417 2.94957Z" fill="white"/>
<path d="M68.1237 2.94957L65.1757 4.57757L65.1757 4.09357L68.1237 5.72157L67.2657 7.21757L64.4277 5.56757L64.7137 5.41357L64.7357 8.55957L63.0637 8.55957L63.0857 5.41357L63.3717 5.56757L60.5557 7.21757L59.6757 5.72157L62.6457 4.09357L62.6457 4.57757L59.6757 2.94957L60.5557 1.43157L63.3717 3.10357L63.0857 3.27957L63.0637 0.111572L64.7357 0.111573L64.7137 3.27957L64.4277 3.10357L67.2657 1.43157L68.1237 2.94957Z" fill="white"/>
<path d="M77.7058 2.94957L74.7578 4.57757L74.7578 4.09357L77.7058 5.72157L76.8478 7.21757L74.0098 5.56757L74.2958 5.41357L74.3178 8.55957L72.6458 8.55957L72.6678 5.41357L72.9538 5.56757L70.1378 7.21757L69.2578 5.72157L72.2278 4.09357L72.2278 4.57757L69.2578 2.94957L70.1378 1.43157L72.9538 3.10357L72.6678 3.27957L72.6458 0.111573L74.3178 0.111573L74.2958 3.27957L74.0098 3.10357L76.8478 1.43157L77.7058 2.94957Z" fill="white"/>
<path d="M87.2878 2.94957L84.3398 4.57757L84.3398 4.09357L87.2878 5.72157L86.4298 7.21757L83.5918 5.56757L83.8778 5.41357L83.8998 8.55957L82.2278 8.55957L82.2498 5.41357L82.5358 5.56757L79.7198 7.21757L78.8398 5.72157L81.8098 4.09357L81.8098 4.57757L78.8398 2.94957L79.7198 1.43157L82.5358 3.10357L82.2498 3.27957L82.2278 0.111573L83.8998 0.111573L83.8778 3.27957L83.5918 3.10357L86.4298 1.43157L87.2878 2.94957Z" fill="white"/>
<path d="M107.736 2.94957L104.788 4.57757L104.788 4.09357L107.736 5.72157L106.878 7.21757L104.04 5.56757L104.326 5.41357L104.348 8.55957L102.676 8.55957L102.698 5.41357L102.984 5.56757L100.168 7.21757L99.2878 5.72157L102.258 4.09357L102.258 4.57757L99.2878 2.94957L100.168 1.43157L102.984 3.10357L102.698 3.27957L102.676 0.111572L104.348 0.111572L104.326 3.27957L104.04 3.10357L106.878 1.43157L107.736 2.94957Z" fill="white"/>
<path d="M117.318 2.94957L114.37 4.57757L114.37 4.09357L117.318 5.72157L116.46 7.21757L113.622 5.56757L113.908 5.41357L113.93 8.55957L112.258 8.55957L112.28 5.41357L112.566 5.56757L109.75 7.21757L108.87 5.72157L111.84 4.09357L111.84 4.57757L108.87 2.94957L109.75 1.43157L112.566 3.10357L112.28 3.27957L112.258 0.111572L113.93 0.111573L113.908 3.27957L113.622 3.10357L116.46 1.43157L117.318 2.94957Z" fill="white"/>
<path d="M126.9 2.94957L123.952 4.57757L123.952 4.09357L126.9 5.72157L126.042 7.21757L123.204 5.56757L123.49 5.41357L123.512 8.55957L121.84 8.55957L121.862 5.41357L122.148 5.56757L119.332 7.21757L118.452 5.72157L121.422 4.09357L121.422 4.57757L118.452 2.94957L119.332 1.43157L122.148 3.10357L121.862 3.27957L121.84 0.111573L123.512 0.111573L123.49 3.27957L123.204 3.10357L126.042 1.43157L126.9 2.94957Z" fill="white"/>
<path d="M136.482 2.94957L133.534 4.57757L133.534 4.09357L136.482 5.72157L135.624 7.21757L132.786 5.56757L133.072 5.41357L133.094 8.55957L131.422 8.55957L131.444 5.41357L131.73 5.56757L128.914 7.21757L128.034 5.72157L131.004 4.09357L131.004 4.57757L128.034 2.94957L128.914 1.43157L131.73 3.10357L131.444 3.27957L131.422 0.111573L133.094 0.111573L133.072 3.27957L132.786 3.10357L135.624 1.43157L136.482 2.94957Z" fill="white"/>
<path d="M148.855 7.97898L148.855 6.81875L152.003 4.00107C152.252 3.78745 152.434 3.59592 152.551 3.42649C152.668 3.25706 152.745 3.10236 152.784 2.9624C152.831 2.82244 152.854 2.69352 152.854 2.57566C152.854 2.26627 152.741 2.03054 152.516 1.86848C152.298 1.69905 151.976 1.61433 151.548 1.61433C151.206 1.61433 150.888 1.67695 150.592 1.80218C150.305 1.92741 150.06 2.12262 149.858 2.38782L148.482 1.54804C148.793 1.10605 149.228 0.756139 149.788 0.498312C150.347 0.240486 150.993 0.111572 151.723 0.111572C152.329 0.111572 152.858 0.207336 153.309 0.398865C153.767 0.583027 154.121 0.844537 154.37 1.1834C154.626 1.52225 154.755 1.92741 154.755 2.39887C154.755 2.64933 154.72 2.89979 154.65 3.15025C154.587 3.39334 154.455 3.65117 154.253 3.92373C154.059 4.19629 153.771 4.502 153.39 4.84085L150.779 7.17235L150.417 6.52041L155.023 6.52041L155.023 7.97898L148.855 7.97898Z" fill="white"/>
<path d="M158.577 8.11157C158.01 8.11157 157.446 8.04159 156.886 7.90163C156.335 7.7543 155.86 7.54804 155.464 7.28284L156.21 5.91268C156.521 6.12631 156.879 6.29573 157.283 6.42096C157.695 6.54619 158.111 6.60881 158.53 6.60881C159.005 6.60881 159.378 6.52041 159.65 6.34362C159.922 6.16682 160.058 5.92004 160.058 5.60329C160.058 5.40439 160.003 5.22759 159.895 5.0729C159.786 4.9182 159.591 4.80034 159.312 4.71931C159.04 4.63828 158.655 4.59776 158.157 4.59776L156.07 4.59776L156.49 0.244169L161.469 0.244169L161.469 1.68063L157.166 1.68063L158.146 0.862953L157.854 3.96793L156.875 3.15025L158.6 3.15025C159.409 3.15025 160.058 3.25706 160.547 3.47069C161.045 3.67695 161.406 3.96056 161.632 4.32152C161.857 4.68247 161.97 5.09131 161.97 5.54804C161.97 6.00476 161.849 6.42833 161.608 6.81875C161.367 7.20181 160.994 7.51489 160.489 7.75798C159.992 7.99371 159.354 8.11157 158.577 8.11157Z" fill="white"/>
<path d="M166.234 8.11157C165.566 8.11157 164.967 7.95688 164.438 7.64748C163.91 7.33073 163.494 6.874 163.191 6.27732C162.888 5.68063 162.736 4.95872 162.736 4.11157C162.736 3.26443 162.888 2.54251 163.191 1.94583C163.494 1.34914 163.91 0.896103 164.438 0.58671C164.967 0.269952 165.566 0.111573 166.234 0.111573C166.91 0.111573 167.509 0.269952 168.03 0.58671C168.558 0.896103 168.974 1.34914 169.277 1.94583C169.58 2.54251 169.732 3.26443 169.732 4.11157C169.732 4.95872 169.58 5.68063 169.277 6.27732C168.974 6.874 168.558 7.33073 168.03 7.64748C167.509 7.95688 166.91 8.11157 166.234 8.11157ZM166.234 6.59776C166.553 6.59776 166.829 6.51305 167.062 6.34362C167.303 6.17419 167.489 5.90531 167.621 5.53699C167.761 5.16866 167.831 4.69352 167.831 4.11157C167.831 3.52962 167.761 3.05448 167.621 2.68616C167.489 2.31783 167.303 2.04896 167.062 1.87953C166.829 1.7101 166.553 1.62538 166.234 1.62538C165.923 1.62538 165.647 1.7101 165.406 1.87953C165.173 2.04896 164.986 2.31783 164.847 2.68616C164.714 3.05448 164.648 3.52962 164.648 4.11157C164.648 4.69352 164.714 5.16866 164.847 5.53699C164.986 5.90531 165.173 6.17419 165.406 6.34362C165.647 6.51305 165.923 6.59776 166.234 6.59776Z" fill="white"/>
<path d="M174.031 8.11157C173.347 8.11157 172.748 8.01581 172.235 7.82428C171.722 7.62538 171.322 7.34914 171.034 6.99555C170.747 6.63459 170.603 6.2147 170.603 5.73588C170.603 5.25706 170.743 4.8519 171.023 4.52041C171.31 4.18155 171.711 3.92741 172.224 3.75798C172.737 3.58119 173.339 3.49279 174.031 3.49279C174.73 3.49279 175.337 3.58119 175.85 3.75798C176.37 3.92741 176.771 4.18155 177.05 4.52041C177.338 4.8519 177.482 5.25706 177.482 5.73588C177.482 6.2147 177.338 6.63459 177.05 6.99555C176.763 7.34914 176.359 7.62538 175.838 7.82428C175.325 8.01581 174.722 8.11157 174.031 8.11157ZM174.031 6.79666C174.505 6.79666 174.878 6.69721 175.15 6.49831C175.43 6.29942 175.57 6.02686 175.57 5.68063C175.57 5.33441 175.43 5.06553 175.15 4.874C174.878 4.67511 174.505 4.57566 174.031 4.57566C173.564 4.57566 173.195 4.67511 172.923 4.874C172.651 5.06553 172.515 5.33441 172.515 5.68063C172.515 6.02686 172.651 6.29942 172.923 6.49831C173.195 6.69721 173.564 6.79666 174.031 6.79666ZM174.031 4.39887C173.401 4.39887 172.849 4.31783 172.375 4.15577C171.909 3.99371 171.543 3.75798 171.279 3.44859C171.023 3.13183 170.894 2.75614 170.894 2.32152C170.894 1.8648 171.026 1.47437 171.291 1.15025C171.555 0.818755 171.924 0.564611 172.398 0.387815C172.873 0.203654 173.417 0.111573 174.031 0.111573C174.66 0.111573 175.208 0.203654 175.675 0.387815C176.149 0.564611 176.518 0.818755 176.782 1.15025C177.054 1.47437 177.19 1.8648 177.19 2.32152C177.19 2.75614 177.058 3.13183 176.794 3.44859C176.537 3.75798 176.172 3.99371 175.698 4.15577C175.224 4.31783 174.668 4.39887 174.031 4.39887ZM174.031 3.34914C174.427 3.34914 174.738 3.26443 174.963 3.095C175.197 2.92557 175.313 2.69352 175.313 2.39887C175.313 2.08947 175.193 1.85006 174.952 1.68063C174.719 1.5112 174.412 1.42649 174.031 1.42649C173.658 1.42649 173.354 1.5112 173.121 1.68063C172.888 1.85006 172.772 2.08947 172.772 2.39887C172.772 2.69352 172.884 2.92557 173.11 3.095C173.335 3.26443 173.642 3.34914 174.031 3.34914Z" fill="white"/>
</svg>
