<svg width="25" height="19" viewBox="0 0 25 19" fill="none" xmlns="http://www.w3.org/2000/svg">
<path d="M0.0888671 4.38987C0.0888672 2.46606 1.64843 0.906494 3.57225 0.906494L20.9891 0.906494C22.913 0.906494 24.4725 2.46606 24.4725 4.38987L24.4725 14.84C24.4725 16.7638 22.913 18.3234 20.9891 18.3234L3.57225 18.3234C1.64843 18.3234 0.088867 16.7638 0.088867 14.84L0.0888671 4.38987Z" fill="white"/>
<path d="M5.96707 1.34204L6.4025 1.34204L6.4025 17.8881L5.96707 17.8881L5.96707 12.663L0.524292 12.663L0.524292 12.2276L5.96707 12.2276L5.96707 7.00253L0.524292 7.00253L0.524292 6.56711L5.96707 6.56711L5.96707 1.34204Z" fill="#999999"/>
<path d="M18.3766 12.2276L24.0371 12.2276L24.0371 12.663L18.3766 12.663L18.3766 17.8881L17.9412 17.8881L17.9412 9.17965C17.9412 7.73678 19.1109 6.56711 20.5537 6.56711L24.0371 6.56711L24.0371 7.00253L20.5537 7.00253C19.3513 7.00253 18.3766 7.97726 18.3766 9.17965L18.3766 12.2276Z" fill="#999999"/>
<path d="M18.3766 1.34204L17.9412 1.34204L17.9412 4.82542L18.3766 4.82542L18.3766 1.34204Z" fill="#999999"/>
<path fill-rule="evenodd" clip-rule="evenodd" d="M15.3287 9.61507C15.3287 11.2984 13.964 12.663 12.2807 12.663C10.5974 12.663 9.23274 11.2984 9.23274 9.61507C9.23274 7.93173 10.5974 6.56711 12.2807 6.56711C13.964 6.56711 15.3287 7.93173 15.3287 9.61507ZM14.8932 9.61507C14.8932 11.0579 13.7236 12.2276 12.2807 12.2276C10.8378 12.2276 9.66817 11.0579 9.66817 9.61507C9.66817 8.17221 10.8378 7.00253 12.2807 7.00253C13.7236 7.00253 14.8932 8.17221 14.8932 9.61507Z" fill="#999999"/>
</svg>
