<svg width="659" height="537" viewBox="0 0 659 537" fill="none" xmlns="http://www.w3.org/2000/svg">
<rect width="156.776" height="182.906" rx="32" transform="matrix(1 0 -0.173648 0.984808 44.4925 123.5)" fill="url(#paint0_linear_1_182)" fill-opacity="0.3"/>
<rect width="139.343" height="162.567" rx="28" transform="matrix(1 0 -0.173648 0.984808 49.4431 133.515)" fill="black" fill-opacity="0.3"/>
<rect width="156.776" height="182.906" rx="32" transform="matrix(1 0 -0.173648 0.984808 489.492 123.5)" fill="url(#paint1_linear_1_182)" fill-opacity="0.3"/>
<rect width="139.148" height="162.339" rx="28" transform="matrix(1 0 -0.173648 0.984808 498.443 133.626)" fill="black" fill-opacity="0.3"/>
<g opacity="0.6" filter="url(#filter0_f_1_182)">
<rect width="228.739" height="260.062" rx="20" transform="matrix(1 0 -0.173648 0.984808 237.789 85.4448)" fill="#11ED38" fill-opacity="0.5"/>
</g>
<g opacity="0.5" filter="url(#filter1_i_1_182)">
<rect width="201.846" height="229.486" rx="45" transform="matrix(1 0 -0.173648 0.984808 248.581 100.5)" fill="#12ED39" fill-opacity="0.01"/>
</g>
<rect opacity="0.2" width="139.369" height="162.597" rx="26" transform="matrix(1 0 -0.173648 0.984808 275.287 133.5)" stroke="#12ED39"/>
<g opacity="0.5" filter="url(#filter2_i_1_182)">
<rect width="118.48" height="138.227" rx="20" transform="matrix(1 0 -0.173648 0.984808 283.616 145.5)" fill="#12ED39" fill-opacity="0.01"/>
</g>
<path d="M307.173 229.129C310.465 224.292 312.67 218.964 313.614 213.563C314.072 210.937 315.126 208.344 316.698 205.977C318.269 203.609 320.317 201.529 322.689 199.89M331.386 213.563C329.83 222.461 325.993 231.215 320.237 238.996M322.5 213.563C322.909 211.242 324.238 209.016 326.194 207.375C328.149 205.734 330.572 204.812 332.929 204.812C335.286 204.812 337.383 205.734 338.76 207.375C340.137 209.016 340.681 211.242 340.272 213.563C338.694 222.584 335.105 231.495 329.762 239.655M353.833 228.877C355.73 223.833 357.14 218.704 358.044 213.563C359.272 206.6 357.641 199.923 353.509 194.999C349.378 190.076 343.085 187.31 336.015 187.31C328.945 187.31 321.677 190.076 315.809 194.999C309.942 199.923 305.956 206.6 304.728 213.563C304.205 216.544 303.17 219.503 301.666 222.314M320.071 222.314C318.311 226.914 315.833 231.332 312.732 235.397M332.226 196.198C332.979 196.109 333.729 196.064 334.471 196.064C339.185 196.064 343.38 197.908 346.134 201.19C348.888 204.472 349.976 208.924 349.157 213.566C348.64 216.491 347.939 219.414 347.059 222.317M343.834 231.065C343.126 232.684 342.365 234.279 341.551 235.851" stroke="#12ED39" stroke-width="3" stroke-linecap="round" stroke-linejoin="round"/>
<path opacity="0.8" d="M280.421 165.196C282.339 154.318 292.848 145.5 303.894 145.5H382.126C393.171 145.5 400.571 154.318 398.653 165.196L388.281 224.017H270.049L280.421 165.196Z" fill="url(#paint2_linear_1_182)"/>
<path d="M377.412 145.5H382.096C393.142 145.5 400.541 154.318 398.623 165.196L397.81 169.808" stroke="#12ED39" stroke-width="1.5" stroke-linecap="round" stroke-linejoin="round"/>
<path d="M284.296 281.627H279.613C268.567 281.627 261.168 272.808 263.086 261.931L263.899 257.318" stroke="#12ED39" stroke-width="1.5" stroke-linecap="round" stroke-linejoin="round"/>
<path d="M382.379 257.318L381.566 261.931C379.648 272.808 369.139 281.627 358.093 281.627H353.41" stroke="#12ED39" stroke-width="1.5" stroke-linecap="round" stroke-linejoin="round"/>
<path d="M279.329 169.808L280.143 165.196C282.061 154.318 292.57 145.5 303.616 145.5H308.299" stroke="#12ED39" stroke-width="1.5" stroke-linecap="round" stroke-linejoin="round"/>
<path d="M217.731 223.626H439.731" stroke="url(#paint3_linear_1_182)"/>
<path d="M156.757 430.132C154.752 430.132 153.045 429.812 151.637 429.172C150.25 428.51 149.194 427.614 148.469 426.484C147.744 425.332 147.381 424.03 147.381 422.58H151.157C151.157 423.241 151.338 423.892 151.701 424.532C152.064 425.172 152.65 425.705 153.461 426.132C154.272 426.537 155.37 426.74 156.757 426.74C158.016 426.74 159.05 426.558 159.861 426.196C160.693 425.833 161.301 425.353 161.685 424.756C162.09 424.158 162.293 423.497 162.293 422.772C162.293 421.876 161.909 421.15 161.141 420.596C160.373 420.02 159.221 419.668 157.685 419.54L155.349 419.316C153.194 419.145 151.477 418.484 150.197 417.332C148.917 416.158 148.277 414.622 148.277 412.724C148.277 411.273 148.618 410.014 149.301 408.948C150.005 407.881 150.986 407.049 152.245 406.452C153.504 405.833 154.965 405.524 156.629 405.524C158.336 405.524 159.818 405.833 161.077 406.452C162.336 407.049 163.306 407.902 163.989 409.012C164.693 410.1 165.045 411.401 165.045 412.916H161.269C161.269 412.233 161.098 411.593 160.757 410.996C160.437 410.377 159.936 409.876 159.253 409.492C158.57 409.108 157.696 408.916 156.629 408.916C155.605 408.916 154.752 409.097 154.069 409.46C153.408 409.822 152.906 410.292 152.565 410.868C152.224 411.444 152.053 412.062 152.053 412.724C152.053 413.513 152.352 414.217 152.949 414.836C153.546 415.433 154.464 415.785 155.701 415.892L158.005 416.084C159.648 416.212 161.066 416.564 162.261 417.14C163.477 417.694 164.416 418.441 165.077 419.38C165.76 420.318 166.101 421.449 166.101 422.772C166.101 424.222 165.706 425.502 164.917 426.612C164.149 427.721 163.061 428.585 161.653 429.204C160.266 429.822 158.634 430.132 156.757 430.132ZM176.65 430.132C175.156 430.132 173.855 429.876 172.746 429.364C171.636 428.852 170.73 428.18 170.026 427.348C169.322 426.494 168.788 425.545 168.426 424.5C168.084 423.433 167.914 422.345 167.914 421.236V420.628C167.914 419.497 168.084 418.409 168.426 417.364C168.788 416.297 169.322 415.348 170.026 414.516C170.73 413.662 171.615 412.99 172.682 412.5C173.77 411.988 175.028 411.732 176.458 411.732C178.314 411.732 179.86 412.137 181.098 412.948C182.335 413.758 183.263 414.814 183.882 416.116C184.5 417.396 184.81 418.782 184.81 420.276V421.78H169.514V419.252H182.282L181.258 420.532C181.258 419.38 181.076 418.388 180.714 417.556C180.351 416.702 179.818 416.052 179.114 415.604C178.41 415.134 177.524 414.9 176.458 414.9C175.348 414.9 174.42 415.156 173.674 415.668C172.927 416.18 172.372 416.884 172.01 417.78C171.647 418.676 171.466 419.732 171.466 420.948C171.466 422.1 171.647 423.134 172.01 424.052C172.372 424.948 172.938 425.662 173.706 426.196C174.474 426.708 175.455 426.964 176.65 426.964C177.844 426.964 178.826 426.708 179.594 426.196C180.362 425.662 180.831 425.044 181.002 424.34H184.49C184.255 425.513 183.775 426.537 183.05 427.412C182.346 428.286 181.45 428.958 180.362 429.428C179.274 429.897 178.036 430.132 176.65 430.132ZM195.056 430.132C193.584 430.132 192.294 429.886 191.184 429.396C190.096 428.884 189.19 428.201 188.464 427.348C187.76 426.473 187.227 425.513 186.864 424.468C186.523 423.401 186.352 422.324 186.352 421.236V420.66C186.352 419.529 186.534 418.441 186.896 417.396C187.259 416.329 187.803 415.369 188.528 414.516C189.254 413.662 190.15 412.99 191.216 412.5C192.304 411.988 193.574 411.732 195.024 411.732C196.496 411.732 197.808 412.009 198.96 412.564C200.134 413.118 201.072 413.908 201.776 414.932C202.48 415.934 202.875 417.108 202.96 418.452H199.344C199.216 417.492 198.779 416.681 198.032 416.02C197.307 415.358 196.304 415.028 195.024 415.028C193.915 415.028 192.998 415.284 192.272 415.796C191.547 416.308 191.003 417.012 190.64 417.908C190.278 418.782 190.096 419.796 190.096 420.948C190.096 422.057 190.267 423.06 190.608 423.956C190.971 424.852 191.515 425.556 192.24 426.068C192.987 426.58 193.926 426.836 195.056 426.836C195.931 426.836 196.678 426.686 197.296 426.388C197.936 426.068 198.448 425.652 198.832 425.14C199.216 424.606 199.44 423.998 199.504 423.316H203.152C203.088 424.702 202.694 425.908 201.968 426.932C201.243 427.934 200.283 428.724 199.088 429.3C197.894 429.854 196.55 430.132 195.056 430.132ZM211.677 430.068C209.65 430.068 208.093 429.417 207.005 428.116C205.917 426.793 205.373 424.852 205.373 422.292V412.308H209.117V422.804C209.117 423.998 209.448 424.948 210.109 425.652C210.77 426.334 211.666 426.676 212.797 426.676C213.949 426.676 214.888 426.313 215.613 425.588C216.36 424.841 216.733 423.828 216.733 422.548V412.308H220.477V429.556H217.501V422.196H217.885C217.885 423.924 217.65 425.374 217.181 426.548C216.733 427.7 216.061 428.574 215.165 429.172C214.29 429.769 213.181 430.068 211.837 430.068H211.677ZM224.758 429.556V412.308H227.734V419.508H227.606C227.606 417.033 228.15 415.188 229.238 413.972C230.326 412.734 231.937 412.116 234.07 412.116H234.678V415.412H233.526C231.905 415.412 230.657 415.849 229.782 416.724C228.929 417.577 228.502 418.804 228.502 420.404V429.556H224.758ZM244.092 430.132C242.599 430.132 241.297 429.876 240.188 429.364C239.079 428.852 238.172 428.18 237.468 427.348C236.764 426.494 236.231 425.545 235.868 424.5C235.527 423.433 235.356 422.345 235.356 421.236V420.628C235.356 419.497 235.527 418.409 235.868 417.364C236.231 416.297 236.764 415.348 237.468 414.516C238.172 413.662 239.057 412.99 240.124 412.5C241.212 411.988 242.471 411.732 243.9 411.732C245.756 411.732 247.303 412.137 248.54 412.948C249.777 413.758 250.705 414.814 251.324 416.116C251.943 417.396 252.252 418.782 252.252 420.276V421.78H236.956V419.252H249.724L248.7 420.532C248.7 419.38 248.519 418.388 248.156 417.556C247.793 416.702 247.26 416.052 246.556 415.604C245.852 415.134 244.967 414.9 243.9 414.9C242.791 414.9 241.863 415.156 241.116 415.668C240.369 416.18 239.815 416.884 239.452 417.78C239.089 418.676 238.908 419.732 238.908 420.948C238.908 422.1 239.089 423.134 239.452 424.052C239.815 424.948 240.38 425.662 241.148 426.196C241.916 426.708 242.897 426.964 244.092 426.964C245.287 426.964 246.268 426.708 247.036 426.196C247.804 425.662 248.273 425.044 248.444 424.34H251.932C251.697 425.513 251.217 426.537 250.492 427.412C249.788 428.286 248.892 428.958 247.804 429.428C246.716 429.897 245.479 430.132 244.092 430.132ZM265.721 420.532L258.489 406.196H262.457L268.281 417.972L267.161 417.62H270.553L269.369 417.972L274.777 406.196H278.521L271.769 420.532H265.721ZM266.873 429.556V419.86H270.617V429.556H266.873ZM286.797 430.132C285.282 430.132 283.949 429.886 282.797 429.396C281.645 428.884 280.674 428.212 279.885 427.38C279.095 426.548 278.498 425.609 278.093 424.564C277.687 423.497 277.485 422.398 277.485 421.268V420.628C277.485 419.497 277.687 418.398 278.093 417.332C278.519 416.265 279.127 415.316 279.917 414.484C280.727 413.63 281.709 412.958 282.861 412.468C284.013 411.977 285.325 411.732 286.797 411.732C288.269 411.732 289.57 411.977 290.701 412.468C291.853 412.958 292.834 413.63 293.645 414.484C294.455 415.316 295.063 416.265 295.469 417.332C295.895 418.398 296.109 419.497 296.109 420.628V421.268C296.109 422.398 295.906 423.497 295.501 424.564C295.095 425.609 294.498 426.548 293.709 427.38C292.919 428.212 291.949 428.884 290.797 429.396C289.645 429.886 288.311 430.132 286.797 430.132ZM286.797 426.868C287.97 426.868 288.973 426.612 289.805 426.1C290.637 425.566 291.266 424.852 291.693 423.956C292.141 423.06 292.365 422.057 292.365 420.948C292.365 419.817 292.141 418.804 291.693 417.908C291.245 417.012 290.605 416.308 289.773 415.796C288.941 415.262 287.949 414.996 286.797 414.996C285.645 414.996 284.653 415.262 283.821 415.796C282.989 416.308 282.349 417.012 281.901 417.908C281.453 418.804 281.229 419.817 281.229 420.948C281.229 422.057 281.442 423.06 281.869 423.956C282.317 424.852 282.957 425.566 283.789 426.1C284.621 426.612 285.623 426.868 286.797 426.868ZM305.028 430.068C303.002 430.068 301.444 429.417 300.356 428.116C299.268 426.793 298.724 424.852 298.724 422.292V412.308H302.468V422.804C302.468 423.998 302.799 424.948 303.46 425.652C304.122 426.334 305.018 426.676 306.148 426.676C307.3 426.676 308.239 426.313 308.964 425.588C309.711 424.841 310.084 423.828 310.084 422.548V412.308H313.828V429.556H310.852V422.196H311.236C311.236 423.924 311.002 425.374 310.532 426.548C310.084 427.7 309.412 428.574 308.516 429.172C307.642 429.769 306.532 430.068 305.188 430.068H305.028ZM318.109 429.556V412.308H321.085V419.508H320.957C320.957 417.033 321.501 415.188 322.589 413.972C323.677 412.734 325.288 412.116 327.421 412.116H328.029V415.412H326.877C325.256 415.412 324.008 415.849 323.133 416.724C322.28 417.577 321.853 418.804 321.853 420.404V429.556H318.109ZM346.613 430.132C344.48 430.132 342.656 429.769 341.141 429.044C339.648 428.297 338.432 427.326 337.493 426.132C336.576 424.916 335.893 423.614 335.445 422.228C335.019 420.82 334.805 419.465 334.805 418.164V417.46C334.805 416.03 335.029 414.612 335.477 413.204C335.925 411.796 336.608 410.516 337.525 409.364C338.464 408.212 339.669 407.284 341.141 406.58C342.635 405.876 344.395 405.524 346.421 405.524C348.533 405.524 350.357 405.897 351.893 406.644C353.429 407.39 354.645 408.436 355.541 409.78C356.459 411.102 357.003 412.67 357.173 414.484H353.301C353.131 413.289 352.725 412.297 352.085 411.508C351.467 410.697 350.667 410.089 349.685 409.684C348.725 409.278 347.637 409.076 346.421 409.076C345.163 409.076 344.043 409.3 343.061 409.748C342.101 410.196 341.301 410.814 340.661 411.604C340.021 412.393 339.531 413.321 339.189 414.388C338.869 415.433 338.709 416.585 338.709 417.844C338.709 419.038 338.869 420.169 339.189 421.236C339.531 422.281 340.032 423.209 340.693 424.02C341.355 424.83 342.176 425.46 343.157 425.908C344.16 426.356 345.312 426.58 346.613 426.58C348.491 426.58 350.069 426.121 351.349 425.204C352.629 424.265 353.408 422.932 353.685 421.204H357.589C357.376 422.846 356.821 424.35 355.925 425.716C355.029 427.06 353.803 428.137 352.245 428.948C350.688 429.737 348.811 430.132 346.613 430.132ZM360.113 429.556V412.308H363.089V419.508H362.961C362.961 417.033 363.505 415.188 364.593 413.972C365.681 412.734 367.292 412.116 369.425 412.116H370.033V415.412H368.881C367.26 415.412 366.012 415.849 365.137 416.724C364.284 417.577 363.857 418.804 363.857 420.404V429.556H360.113ZM371.814 436.308V433.012H374.662C375.323 433.012 375.888 432.926 376.358 432.756C376.827 432.606 377.211 432.329 377.51 431.924C377.808 431.54 378.054 431.017 378.246 430.356L383.27 412.308H386.886L381.446 431.252C381.104 432.446 380.624 433.417 380.006 434.164C379.408 434.91 378.64 435.454 377.702 435.796C376.784 436.137 375.675 436.308 374.374 436.308H371.814ZM377.126 429.172V426.132H380.838V429.172H377.126ZM376.198 429.172L370.342 412.308H374.15L379.75 429.172H376.198ZM389.116 435.956V412.308H392.092V419.764L391.516 419.732C391.622 417.918 392.006 416.425 392.668 415.252C393.329 414.078 394.204 413.204 395.292 412.628C396.38 412.052 397.574 411.764 398.876 411.764C400.113 411.764 401.233 411.998 402.236 412.468C403.238 412.916 404.102 413.545 404.828 414.356C405.553 415.166 406.097 416.105 406.46 417.172C406.844 418.238 407.036 419.39 407.036 420.628V421.236C407.036 422.452 406.844 423.604 406.46 424.692C406.076 425.758 405.521 426.697 404.796 427.508C404.07 428.318 403.206 428.958 402.204 429.428C401.201 429.897 400.081 430.132 398.844 430.132C397.585 430.132 396.412 429.865 395.324 429.332C394.236 428.798 393.34 427.945 392.636 426.772C391.932 425.598 391.537 424.073 391.452 422.196L392.86 424.564V435.956H389.116ZM398.044 426.9C399.089 426.9 400.006 426.654 400.796 426.164C401.585 425.652 402.193 424.948 402.62 424.052C403.068 423.134 403.292 422.089 403.292 420.916C403.292 419.742 403.068 418.708 402.62 417.812C402.193 416.916 401.585 416.222 400.796 415.732C400.028 415.22 399.11 414.964 398.044 414.964C397.105 414.964 396.23 415.177 395.42 415.604C394.609 416.03 393.958 416.649 393.468 417.46C392.977 418.249 392.732 419.209 392.732 420.34V421.716C392.732 422.804 392.977 423.742 393.468 424.532C393.98 425.3 394.641 425.886 395.452 426.292C396.262 426.697 397.126 426.9 398.044 426.9ZM417.126 429.748C415.697 429.748 414.492 429.556 413.51 429.172C412.529 428.788 411.782 428.126 411.27 427.188C410.78 426.249 410.534 424.98 410.534 423.38V407.284H414.086V423.7C414.086 424.596 414.321 425.289 414.79 425.78C415.281 426.249 415.964 426.484 416.838 426.484H419.718V429.748H417.126ZM407.686 415.092V412.308H419.718V415.092H407.686ZM430.495 430.132C428.981 430.132 427.647 429.886 426.495 429.396C425.343 428.884 424.373 428.212 423.583 427.38C422.794 426.548 422.197 425.609 421.791 424.564C421.386 423.497 421.183 422.398 421.183 421.268V420.628C421.183 419.497 421.386 418.398 421.791 417.332C422.218 416.265 422.826 415.316 423.615 414.484C424.426 413.63 425.407 412.958 426.559 412.468C427.711 411.977 429.023 411.732 430.495 411.732C431.967 411.732 433.269 411.977 434.399 412.468C435.551 412.958 436.533 413.63 437.343 414.484C438.154 415.316 438.762 416.265 439.167 417.332C439.594 418.398 439.807 419.497 439.807 420.628V421.268C439.807 422.398 439.605 423.497 439.199 424.564C438.794 425.609 438.197 426.548 437.407 427.38C436.618 428.212 435.647 428.884 434.495 429.396C433.343 429.886 432.01 430.132 430.495 430.132ZM430.495 426.868C431.669 426.868 432.671 426.612 433.503 426.1C434.335 425.566 434.965 424.852 435.391 423.956C435.839 423.06 436.063 422.057 436.063 420.948C436.063 419.817 435.839 418.804 435.391 417.908C434.943 417.012 434.303 416.308 433.471 415.796C432.639 415.262 431.647 414.996 430.495 414.996C429.343 414.996 428.351 415.262 427.519 415.796C426.687 416.308 426.047 417.012 425.599 417.908C425.151 418.804 424.927 419.817 424.927 420.948C424.927 422.057 425.141 423.06 425.567 423.956C426.015 424.852 426.655 425.566 427.487 426.1C428.319 426.612 429.322 426.868 430.495 426.868ZM454.093 429.556L457.453 412.884H462.093L466.029 429.556H462.957L458.989 412.98H460.429L456.973 429.556H454.093ZM452.621 429.556V426.516H456.173V429.556H452.621ZM451.405 429.556L446.605 412.308H450.253L454.829 429.556H451.405ZM463.821 429.556V426.516H467.373V429.556H463.821ZM465.261 429.556L469.293 412.308H472.717L468.493 429.556H465.261ZM476.11 429.556V412.308H479.854V429.556H476.11ZM473.582 415.188V412.308H479.854V415.188H473.582ZM477.326 409.908C476.558 409.908 475.982 409.705 475.598 409.3C475.236 408.894 475.054 408.372 475.054 407.732C475.054 407.113 475.236 406.601 475.598 406.196C475.982 405.769 476.558 405.556 477.326 405.556C478.116 405.556 478.692 405.769 479.054 406.196C479.438 406.601 479.63 407.113 479.63 407.732C479.63 408.372 479.438 408.894 479.054 409.3C478.692 409.705 478.116 409.908 477.326 409.908ZM491.226 429.748C489.797 429.748 488.592 429.556 487.61 429.172C486.629 428.788 485.882 428.126 485.37 427.188C484.88 426.249 484.634 424.98 484.634 423.38V407.284H488.186V423.7C488.186 424.596 488.421 425.289 488.89 425.78C489.381 426.249 490.064 426.484 490.938 426.484H493.818V429.748H491.226ZM481.786 415.092V412.308H493.818V415.092H481.786ZM496.593 429.556V406.196H500.337V419.988H499.569C499.569 418.281 499.783 416.82 500.209 415.604C500.657 414.366 501.329 413.428 502.225 412.788C503.143 412.126 504.295 411.796 505.681 411.796H505.841C507.868 411.796 509.393 412.478 510.417 413.844C511.463 415.209 511.985 417.172 511.985 419.732V429.556H508.241V419.188C508.241 417.95 507.879 416.98 507.153 416.276C506.449 415.55 505.532 415.188 504.401 415.188C503.185 415.188 502.204 415.593 501.457 416.404C500.711 417.214 500.337 418.281 500.337 419.604V429.556H496.593ZM209.731 468.132C207.725 468.132 206.019 467.812 204.611 467.172C203.224 466.51 202.168 465.614 201.443 464.484C200.717 463.332 200.355 462.03 200.355 460.58H204.131C204.131 461.241 204.312 461.892 204.675 462.532C205.037 463.172 205.624 463.705 206.435 464.132C207.245 464.537 208.344 464.74 209.731 464.74C210.989 464.74 212.024 464.558 212.835 464.196C213.667 463.833 214.275 463.353 214.659 462.756C215.064 462.158 215.267 461.497 215.267 460.772C215.267 459.876 214.883 459.15 214.115 458.596C213.347 458.02 212.195 457.668 210.659 457.54L208.323 457.316C206.168 457.145 204.451 456.484 203.171 455.332C201.891 454.158 201.251 452.622 201.251 450.724C201.251 449.273 201.592 448.014 202.275 446.948C202.979 445.881 203.96 445.049 205.219 444.452C206.477 443.833 207.939 443.524 209.603 443.524C211.309 443.524 212.792 443.833 214.051 444.452C215.309 445.049 216.28 445.902 216.963 447.012C217.667 448.1 218.019 449.401 218.019 450.916H214.243C214.243 450.233 214.072 449.593 213.731 448.996C213.411 448.377 212.909 447.876 212.227 447.492C211.544 447.108 210.669 446.916 209.603 446.916C208.579 446.916 207.725 447.097 207.043 447.46C206.381 447.822 205.88 448.292 205.539 448.868C205.197 449.444 205.027 450.062 205.027 450.724C205.027 451.513 205.325 452.217 205.923 452.836C206.52 453.433 207.437 453.785 208.675 453.892L210.979 454.084C212.621 454.212 214.04 454.564 215.235 455.14C216.451 455.694 217.389 456.441 218.051 457.38C218.733 458.318 219.075 459.449 219.075 460.772C219.075 462.222 218.68 463.502 217.891 464.612C217.123 465.721 216.035 466.585 214.627 467.204C213.24 467.822 211.608 468.132 209.731 468.132ZM222.103 467.556V450.308H225.079V457.732H224.727C224.727 456.025 224.941 454.585 225.367 453.412C225.815 452.238 226.477 451.342 227.351 450.724C228.247 450.105 229.357 449.796 230.679 449.796H230.839C232.183 449.796 233.293 450.105 234.167 450.724C235.063 451.342 235.725 452.238 236.151 453.412C236.599 454.585 236.823 456.025 236.823 457.732H235.799C235.799 456.025 236.023 454.585 236.471 453.412C236.919 452.238 237.591 451.342 238.487 450.724C239.383 450.105 240.493 449.796 241.815 449.796H241.975C243.319 449.796 244.439 450.105 245.335 450.724C246.231 451.342 246.903 452.238 247.351 453.412C247.799 454.585 248.023 456.025 248.023 457.732V467.556H244.279V457.188C244.279 455.929 243.959 454.948 243.319 454.244C242.701 453.54 241.837 453.188 240.727 453.188C239.575 453.188 238.658 453.561 237.975 454.308C237.293 455.033 236.951 456.046 236.951 457.348V467.556H233.175V457.188C233.175 455.929 232.866 454.948 232.247 454.244C231.629 453.54 230.765 453.188 229.655 453.188C228.503 453.188 227.575 453.561 226.871 454.308C226.189 455.033 225.847 456.046 225.847 457.348V467.556H222.103ZM262.348 467.556V462.404H261.74V456.58C261.74 455.513 261.463 454.702 260.908 454.148C260.354 453.593 259.532 453.316 258.444 453.316C257.847 453.316 257.186 453.326 256.46 453.348C255.735 453.369 255.02 453.401 254.316 453.444C253.634 453.465 253.026 453.497 252.492 453.54V450.308C252.962 450.265 253.474 450.233 254.028 450.212C254.604 450.169 255.191 450.137 255.788 450.116C256.407 450.094 256.994 450.084 257.548 450.084C259.298 450.084 260.748 450.308 261.9 450.756C263.052 451.204 263.906 451.918 264.46 452.9C265.036 453.86 265.324 455.15 265.324 456.772V467.556H262.348ZM256.748 468.004C255.49 468.004 254.391 467.79 253.452 467.364C252.514 466.916 251.788 466.276 251.276 465.444C250.764 464.59 250.508 463.577 250.508 462.404C250.508 461.166 250.796 460.142 251.372 459.332C251.97 458.521 252.812 457.913 253.9 457.508C254.988 457.102 256.29 456.9 257.804 456.9H262.124V459.364H257.708C256.578 459.364 255.714 459.641 255.116 460.196C254.519 460.729 254.22 461.433 254.22 462.308C254.22 463.182 254.519 463.886 255.116 464.42C255.714 464.932 256.578 465.188 257.708 465.188C258.37 465.188 258.999 465.07 259.596 464.836C260.194 464.58 260.684 464.164 261.068 463.588C261.474 463.012 261.698 462.201 261.74 461.156L262.7 462.404C262.594 463.62 262.295 464.644 261.804 465.476C261.335 466.286 260.674 466.916 259.82 467.364C258.988 467.79 257.964 468.004 256.748 468.004ZM269.262 467.556V450.308H272.238V457.508H272.11C272.11 455.033 272.654 453.188 273.742 451.972C274.83 450.734 276.441 450.116 278.574 450.116H279.182V453.412H278.03C276.409 453.412 275.161 453.849 274.286 454.724C273.433 455.577 273.006 456.804 273.006 458.404V467.556H269.262ZM288.648 467.748C287.218 467.748 286.013 467.556 285.032 467.172C284.05 466.788 283.304 466.126 282.792 465.188C282.301 464.249 282.056 462.98 282.056 461.38V445.284H285.608V461.7C285.608 462.596 285.842 463.289 286.312 463.78C286.802 464.249 287.485 464.484 288.36 464.484H291.24V467.748H288.648ZM279.208 453.092V450.308H291.24V453.092H279.208ZM303.412 459.908V456.548H308.276C309.3 456.548 310.143 456.356 310.804 455.972C311.487 455.566 312.01 455.022 312.372 454.34C312.735 453.636 312.916 452.846 312.916 451.972C312.916 451.076 312.735 450.286 312.372 449.604C312.01 448.9 311.487 448.356 310.804 447.972C310.143 447.588 309.3 447.396 308.276 447.396H303.412V444.036H307.828C309.77 444.036 311.402 444.356 312.724 444.996C314.068 445.614 315.082 446.5 315.764 447.652C316.468 448.782 316.82 450.137 316.82 451.716V452.228C316.82 453.785 316.468 455.14 315.764 456.292C315.082 457.444 314.068 458.34 312.724 458.98C311.402 459.598 309.77 459.908 307.828 459.908H303.412ZM300.212 467.556V444.036H304.052V467.556H300.212ZM319.423 467.556V450.308H322.399V457.508H322.271C322.271 455.033 322.815 453.188 323.903 451.972C324.991 450.734 326.602 450.116 328.735 450.116H329.343V453.412H328.191C326.57 453.412 325.322 453.849 324.447 454.724C323.594 455.577 323.167 456.804 323.167 458.404V467.556H319.423ZM339.333 468.132C337.818 468.132 336.485 467.886 335.333 467.396C334.181 466.884 333.21 466.212 332.421 465.38C331.632 464.548 331.034 463.609 330.629 462.564C330.224 461.497 330.021 460.398 330.021 459.268V458.628C330.021 457.497 330.224 456.398 330.629 455.332C331.056 454.265 331.664 453.316 332.453 452.484C333.264 451.63 334.245 450.958 335.397 450.468C336.549 449.977 337.861 449.732 339.333 449.732C340.805 449.732 342.106 449.977 343.237 450.468C344.389 450.958 345.37 451.63 346.181 452.484C346.992 453.316 347.6 454.265 348.005 455.332C348.432 456.398 348.645 457.497 348.645 458.628V459.268C348.645 460.398 348.442 461.497 348.037 462.564C347.632 463.609 347.034 464.548 346.245 465.38C345.456 466.212 344.485 466.884 343.333 467.396C342.181 467.886 340.848 468.132 339.333 468.132ZM339.333 464.868C340.506 464.868 341.509 464.612 342.341 464.1C343.173 463.566 343.802 462.852 344.229 461.956C344.677 461.06 344.901 460.057 344.901 458.948C344.901 457.817 344.677 456.804 344.229 455.908C343.781 455.012 343.141 454.308 342.309 453.796C341.477 453.262 340.485 452.996 339.333 452.996C338.181 452.996 337.189 453.262 336.357 453.796C335.525 454.308 334.885 455.012 334.437 455.908C333.989 456.804 333.765 457.817 333.765 458.948C333.765 460.057 333.978 461.06 334.405 461.956C334.853 462.852 335.493 463.566 336.325 464.1C337.157 464.612 338.16 464.868 339.333 464.868ZM358.717 467.748C357.287 467.748 356.082 467.556 355.101 467.172C354.119 466.788 353.373 466.126 352.861 465.188C352.37 464.249 352.125 462.98 352.125 461.38V445.284H355.677V461.7C355.677 462.596 355.911 463.289 356.381 463.78C356.871 464.249 357.554 464.484 358.429 464.484H361.309V467.748H358.717ZM349.277 453.092V450.308H361.309V453.092H349.277ZM371.51 468.132C370.016 468.132 368.715 467.876 367.606 467.364C366.496 466.852 365.59 466.18 364.886 465.348C364.182 464.494 363.648 463.545 363.286 462.5C362.944 461.433 362.774 460.345 362.774 459.236V458.628C362.774 457.497 362.944 456.409 363.286 455.364C363.648 454.297 364.182 453.348 364.886 452.516C365.59 451.662 366.475 450.99 367.542 450.5C368.63 449.988 369.888 449.732 371.318 449.732C373.174 449.732 374.72 450.137 375.958 450.948C377.195 451.758 378.123 452.814 378.742 454.116C379.36 455.396 379.67 456.782 379.67 458.276V459.78H364.374V457.252H377.142L376.118 458.532C376.118 457.38 375.936 456.388 375.574 455.556C375.211 454.702 374.678 454.052 373.974 453.604C373.27 453.134 372.384 452.9 371.318 452.9C370.208 452.9 369.28 453.156 368.534 453.668C367.787 454.18 367.232 454.884 366.87 455.78C366.507 456.676 366.326 457.732 366.326 458.948C366.326 460.1 366.507 461.134 366.87 462.052C367.232 462.948 367.798 463.662 368.566 464.196C369.334 464.708 370.315 464.964 371.51 464.964C372.704 464.964 373.686 464.708 374.454 464.196C375.222 463.662 375.691 463.044 375.862 462.34H379.35C379.115 463.513 378.635 464.537 377.91 465.412C377.206 466.286 376.31 466.958 375.222 467.428C374.134 467.897 372.896 468.132 371.51 468.132ZM389.916 468.132C388.444 468.132 387.154 467.886 386.044 467.396C384.956 466.884 384.05 466.201 383.324 465.348C382.62 464.473 382.087 463.513 381.724 462.468C381.383 461.401 381.212 460.324 381.212 459.236V458.66C381.212 457.529 381.394 456.441 381.756 455.396C382.119 454.329 382.663 453.369 383.388 452.516C384.114 451.662 385.01 450.99 386.076 450.5C387.164 449.988 388.434 449.732 389.884 449.732C391.356 449.732 392.668 450.009 393.82 450.564C394.994 451.118 395.932 451.908 396.636 452.932C397.34 453.934 397.735 455.108 397.82 456.452H394.204C394.076 455.492 393.639 454.681 392.892 454.02C392.167 453.358 391.164 453.028 389.884 453.028C388.775 453.028 387.858 453.284 387.132 453.796C386.407 454.308 385.863 455.012 385.5 455.908C385.138 456.782 384.956 457.796 384.956 458.948C384.956 460.057 385.127 461.06 385.468 461.956C385.831 462.852 386.375 463.556 387.1 464.068C387.847 464.58 388.786 464.836 389.916 464.836C390.791 464.836 391.538 464.686 392.156 464.388C392.796 464.068 393.308 463.652 393.692 463.14C394.076 462.606 394.3 461.998 394.364 461.316H398.012C397.948 462.702 397.554 463.908 396.828 464.932C396.103 465.934 395.143 466.724 393.948 467.3C392.754 467.854 391.41 468.132 389.916 468.132ZM407.689 467.748C406.26 467.748 405.054 467.556 404.073 467.172C403.092 466.788 402.345 466.126 401.833 465.188C401.342 464.249 401.097 462.98 401.097 461.38V445.284H404.649V461.7C404.649 462.596 404.884 463.289 405.353 463.78C405.844 464.249 406.526 464.484 407.401 464.484H410.281V467.748H407.689ZM398.249 453.092V450.308H410.281V453.092H398.249ZM413.888 467.556V450.308H417.632V467.556H413.888ZM411.36 453.188V450.308H417.632V453.188H411.36ZM415.104 447.908C414.336 447.908 413.76 447.705 413.376 447.3C413.013 446.894 412.832 446.372 412.832 445.732C412.832 445.113 413.013 444.601 413.376 444.196C413.76 443.769 414.336 443.556 415.104 443.556C415.893 443.556 416.469 443.769 416.832 444.196C417.216 444.601 417.408 445.113 417.408 445.732C417.408 446.372 417.216 446.894 416.832 447.3C416.469 447.705 415.893 447.908 415.104 447.908ZM430.028 468.132C428.513 468.132 427.18 467.886 426.028 467.396C424.876 466.884 423.905 466.212 423.116 465.38C422.327 464.548 421.729 463.609 421.324 462.564C420.919 461.497 420.716 460.398 420.716 459.268V458.628C420.716 457.497 420.919 456.398 421.324 455.332C421.751 454.265 422.359 453.316 423.148 452.484C423.959 451.63 424.94 450.958 426.092 450.468C427.244 449.977 428.556 449.732 430.028 449.732C431.5 449.732 432.801 449.977 433.932 450.468C435.084 450.958 436.065 451.63 436.876 452.484C437.687 453.316 438.295 454.265 438.7 455.332C439.127 456.398 439.34 457.497 439.34 458.628V459.268C439.34 460.398 439.137 461.497 438.732 462.564C438.327 463.609 437.729 464.548 436.94 465.38C436.151 466.212 435.18 466.884 434.028 467.396C432.876 467.886 431.543 468.132 430.028 468.132ZM430.028 464.868C431.201 464.868 432.204 464.612 433.036 464.1C433.868 463.566 434.497 462.852 434.924 461.956C435.372 461.06 435.596 460.057 435.596 458.948C435.596 457.817 435.372 456.804 434.924 455.908C434.476 455.012 433.836 454.308 433.004 453.796C432.172 453.262 431.18 452.996 430.028 452.996C428.876 452.996 427.884 453.262 427.052 453.796C426.22 454.308 425.58 455.012 425.132 455.908C424.684 456.804 424.46 457.817 424.46 458.948C424.46 460.057 424.673 461.06 425.1 461.956C425.548 462.852 426.188 463.566 427.02 464.1C427.852 464.612 428.855 464.868 430.028 464.868ZM442.34 467.556V450.308H445.316V457.7H444.964C444.964 455.993 445.188 454.553 445.636 453.38C446.105 452.206 446.809 451.321 447.748 450.724C448.686 450.105 449.849 449.796 451.236 449.796H451.396C453.529 449.796 455.118 450.468 456.164 451.812C457.209 453.156 457.732 455.118 457.732 457.7V467.556H453.988V457.188C453.988 455.993 453.646 455.033 452.964 454.308C452.281 453.561 451.342 453.188 450.148 453.188C448.932 453.188 447.95 453.572 447.204 454.34C446.457 455.086 446.084 456.089 446.084 457.348V467.556H442.34Z" fill="#12ED39"/>
<path d="M141.986 504.844C140.919 504.844 140.007 504.662 139.25 504.3C138.503 503.926 137.895 503.441 137.426 502.844C136.967 502.236 136.626 501.585 136.402 500.892C136.189 500.188 136.082 499.51 136.082 498.86V498.508C136.082 497.793 136.194 497.084 136.418 496.38C136.642 495.676 136.983 495.036 137.442 494.46C137.911 493.884 138.514 493.42 139.25 493.068C139.997 492.716 140.877 492.54 141.89 492.54C142.946 492.54 143.858 492.726 144.626 493.1C145.394 493.473 146.002 493.996 146.45 494.668C146.909 495.329 147.181 496.113 147.266 497.02H145.33C145.245 496.422 145.042 495.926 144.722 495.532C144.413 495.126 144.013 494.822 143.522 494.62C143.042 494.417 142.498 494.316 141.89 494.316C141.261 494.316 140.701 494.428 140.21 494.652C139.73 494.876 139.33 495.185 139.01 495.58C138.69 495.974 138.445 496.438 138.274 496.972C138.114 497.494 138.034 498.07 138.034 498.7C138.034 499.297 138.114 499.862 138.274 500.396C138.445 500.918 138.695 501.382 139.026 501.788C139.357 502.193 139.767 502.508 140.258 502.732C140.759 502.956 141.335 503.068 141.986 503.068C142.925 503.068 143.714 502.838 144.354 502.38C144.994 501.91 145.383 501.244 145.522 500.38H147.474C147.367 501.201 147.09 501.953 146.642 502.636C146.194 503.308 145.581 503.846 144.802 504.252C144.023 504.646 143.085 504.844 141.986 504.844ZM152.336 504.812C151.323 504.812 150.544 504.486 150 503.836C149.456 503.174 149.184 502.204 149.184 500.924V495.932H151.056V501.18C151.056 501.777 151.221 502.252 151.552 502.604C151.883 502.945 152.331 503.116 152.896 503.116C153.472 503.116 153.941 502.934 154.304 502.572C154.677 502.198 154.864 501.692 154.864 501.052V495.932H156.736V504.556H155.248V500.876H155.44C155.44 501.74 155.323 502.465 155.088 503.052C154.864 503.628 154.528 504.065 154.08 504.364C153.643 504.662 153.088 504.812 152.416 504.812H152.336ZM162.493 504.812C161.33 504.812 160.423 504.566 159.773 504.076C159.133 503.585 158.797 502.908 158.765 502.044H160.493C160.514 502.364 160.679 502.657 160.989 502.924C161.298 503.19 161.805 503.324 162.509 503.324C163.106 503.324 163.575 503.206 163.917 502.972C164.258 502.737 164.429 502.444 164.429 502.092C164.429 501.772 164.301 501.521 164.045 501.34C163.799 501.148 163.378 501.02 162.781 500.956L161.933 500.876C161.047 500.78 160.343 500.518 159.821 500.092C159.309 499.665 159.053 499.089 159.053 498.364C159.053 497.788 159.197 497.302 159.485 496.908C159.773 496.513 160.167 496.209 160.669 495.996C161.181 495.782 161.767 495.676 162.429 495.676C163.453 495.676 164.279 495.905 164.909 496.364C165.538 496.812 165.863 497.473 165.885 498.348H164.173C164.151 498.017 163.997 497.74 163.709 497.516C163.421 497.292 162.994 497.18 162.429 497.18C161.895 497.18 161.485 497.286 161.197 497.5C160.919 497.713 160.781 497.985 160.781 498.316C160.781 498.614 160.887 498.849 161.101 499.02C161.314 499.19 161.661 499.302 162.141 499.356L162.989 499.436C163.959 499.542 164.727 499.814 165.293 500.252C165.869 500.678 166.157 501.276 166.157 502.044C166.157 502.598 166.002 503.084 165.693 503.5C165.383 503.916 164.951 504.241 164.397 504.476C163.853 504.7 163.218 504.812 162.493 504.812ZM171.74 504.652C171.025 504.652 170.423 504.556 169.932 504.364C169.441 504.172 169.068 503.841 168.812 503.372C168.567 502.902 168.444 502.268 168.444 501.468V493.42H170.22V501.628C170.22 502.076 170.337 502.422 170.572 502.668C170.817 502.902 171.159 503.02 171.596 503.02H173.036V504.652H171.74ZM167.02 497.324V495.932H173.036V497.324H167.02ZM179.065 504.844C178.307 504.844 177.641 504.721 177.065 504.476C176.489 504.22 176.003 503.884 175.609 503.468C175.214 503.052 174.915 502.582 174.713 502.06C174.51 501.526 174.409 500.977 174.409 500.412V500.092C174.409 499.526 174.51 498.977 174.713 498.444C174.926 497.91 175.23 497.436 175.625 497.02C176.03 496.593 176.521 496.257 177.097 496.012C177.673 495.766 178.329 495.644 179.065 495.644C179.801 495.644 180.451 495.766 181.017 496.012C181.593 496.257 182.083 496.593 182.489 497.02C182.894 497.436 183.198 497.91 183.401 498.444C183.614 498.977 183.721 499.526 183.721 500.092V500.412C183.721 500.977 183.619 501.526 183.417 502.06C183.214 502.582 182.915 503.052 182.521 503.468C182.126 503.884 181.641 504.22 181.065 504.476C180.489 504.721 179.822 504.844 179.065 504.844ZM179.065 503.212C179.651 503.212 180.153 503.084 180.569 502.828C180.985 502.561 181.299 502.204 181.513 501.756C181.737 501.308 181.849 500.806 181.849 500.252C181.849 499.686 181.737 499.18 181.513 498.732C181.289 498.284 180.969 497.932 180.553 497.676C180.137 497.409 179.641 497.276 179.065 497.276C178.489 497.276 177.993 497.409 177.577 497.676C177.161 497.932 176.841 498.284 176.617 498.732C176.393 499.18 176.281 499.686 176.281 500.252C176.281 500.806 176.387 501.308 176.601 501.756C176.825 502.204 177.145 502.561 177.561 502.828C177.977 503.084 178.478 503.212 179.065 503.212ZM185.86 504.556V495.932H187.348V499.644H187.172C187.172 498.79 187.279 498.07 187.492 497.484C187.716 496.897 188.047 496.449 188.484 496.14C188.932 495.83 189.487 495.676 190.148 495.676H190.228C190.9 495.676 191.455 495.83 191.892 496.14C192.34 496.449 192.671 496.897 192.884 497.484C193.108 498.07 193.22 498.79 193.22 499.644H192.708C192.708 498.79 192.82 498.07 193.044 497.484C193.268 496.897 193.604 496.449 194.052 496.14C194.5 495.83 195.055 495.676 195.716 495.676H195.796C196.468 495.676 197.028 495.83 197.476 496.14C197.924 496.449 198.26 496.897 198.484 497.484C198.708 498.07 198.82 498.79 198.82 499.644V504.556H196.948V499.372C196.948 498.742 196.788 498.252 196.468 497.9C196.159 497.548 195.727 497.372 195.172 497.372C194.596 497.372 194.138 497.558 193.796 497.932C193.455 498.294 193.284 498.801 193.284 499.452V504.556H191.396V499.372C191.396 498.742 191.242 498.252 190.932 497.9C190.623 497.548 190.191 497.372 189.636 497.372C189.06 497.372 188.596 497.558 188.244 497.932C187.903 498.294 187.732 498.801 187.732 499.452V504.556H185.86ZM201.839 504.556V495.932H203.711V504.556H201.839ZM200.575 497.372V495.932H203.711V497.372H200.575ZM202.447 494.732C202.063 494.732 201.775 494.63 201.583 494.428C201.402 494.225 201.311 493.964 201.311 493.644C201.311 493.334 201.402 493.078 201.583 492.876C201.775 492.662 202.063 492.556 202.447 492.556C202.842 492.556 203.13 492.662 203.311 492.876C203.503 493.078 203.599 493.334 203.599 493.644C203.599 493.964 203.503 494.225 203.311 494.428C203.13 494.63 202.842 494.732 202.447 494.732ZM205.941 504.556V502.812L210.421 497.452V497.708L210.117 497.292L210.357 497.404H205.909V495.932H212.261V497.676L207.781 503.036V502.812L208.101 503.244L207.861 503.084H212.469V504.556H205.941ZM218.074 504.844C217.327 504.844 216.676 504.716 216.122 504.46C215.567 504.204 215.114 503.868 214.762 503.452C214.41 503.025 214.143 502.55 213.962 502.028C213.791 501.494 213.706 500.95 213.706 500.396V500.092C213.706 499.526 213.791 498.982 213.962 498.46C214.143 497.926 214.41 497.452 214.762 497.036C215.114 496.609 215.556 496.273 216.09 496.028C216.634 495.772 217.263 495.644 217.978 495.644C218.906 495.644 219.679 495.846 220.298 496.252C220.916 496.657 221.38 497.185 221.69 497.836C221.999 498.476 222.154 499.169 222.154 499.916V500.668H214.506V499.404H220.89L220.378 500.044C220.378 499.468 220.287 498.972 220.106 498.556C219.924 498.129 219.658 497.804 219.306 497.58C218.954 497.345 218.511 497.228 217.978 497.228C217.423 497.228 216.959 497.356 216.586 497.612C216.212 497.868 215.935 498.22 215.754 498.668C215.572 499.116 215.482 499.644 215.482 500.252C215.482 500.828 215.572 501.345 215.754 501.804C215.935 502.252 216.218 502.609 216.602 502.876C216.986 503.132 217.476 503.26 218.074 503.26C218.671 503.26 219.162 503.132 219.546 502.876C219.93 502.609 220.164 502.3 220.25 501.948H221.994C221.876 502.534 221.636 503.046 221.274 503.484C220.922 503.921 220.474 504.257 219.93 504.492C219.386 504.726 218.767 504.844 218.074 504.844ZM231.8 504.844C230.797 504.844 229.944 504.684 229.24 504.364C228.546 504.033 228.018 503.585 227.656 503.02C227.293 502.444 227.112 501.793 227.112 501.068H229C229 501.398 229.09 501.724 229.272 502.044C229.453 502.364 229.746 502.63 230.152 502.844C230.557 503.046 231.106 503.148 231.8 503.148C232.429 503.148 232.946 503.057 233.352 502.876C233.768 502.694 234.072 502.454 234.264 502.156C234.466 501.857 234.568 501.526 234.568 501.164C234.568 500.716 234.376 500.353 233.992 500.076C233.608 499.788 233.032 499.612 232.264 499.548L231.096 499.436C230.018 499.35 229.16 499.02 228.52 498.444C227.88 497.857 227.56 497.089 227.56 496.14C227.56 495.414 227.73 494.785 228.072 494.252C228.424 493.718 228.914 493.302 229.544 493.004C230.173 492.694 230.904 492.54 231.736 492.54C232.589 492.54 233.33 492.694 233.96 493.004C234.589 493.302 235.074 493.729 235.416 494.284C235.768 494.828 235.944 495.478 235.944 496.236H234.056C234.056 495.894 233.97 495.574 233.8 495.276C233.64 494.966 233.389 494.716 233.048 494.524C232.706 494.332 232.269 494.236 231.736 494.236C231.224 494.236 230.797 494.326 230.456 494.508C230.125 494.689 229.874 494.924 229.704 495.212C229.533 495.5 229.448 495.809 229.448 496.14C229.448 496.534 229.597 496.886 229.896 497.196C230.194 497.494 230.653 497.67 231.272 497.724L232.424 497.82C233.245 497.884 233.954 498.06 234.552 498.348C235.16 498.625 235.629 498.998 235.96 499.468C236.301 499.937 236.472 500.502 236.472 501.164C236.472 501.889 236.274 502.529 235.88 503.084C235.496 503.638 234.952 504.07 234.248 504.38C233.554 504.689 232.738 504.844 231.8 504.844ZM242.386 504.844C241.639 504.844 240.989 504.716 240.434 504.46C239.879 504.204 239.426 503.868 239.074 503.452C238.722 503.025 238.455 502.55 238.274 502.028C238.103 501.494 238.018 500.95 238.018 500.396V500.092C238.018 499.526 238.103 498.982 238.274 498.46C238.455 497.926 238.722 497.452 239.074 497.036C239.426 496.609 239.869 496.273 240.402 496.028C240.946 495.772 241.575 495.644 242.29 495.644C243.218 495.644 243.991 495.846 244.61 496.252C245.229 496.657 245.693 497.185 246.002 497.836C246.311 498.476 246.466 499.169 246.466 499.916V500.668H238.818V499.404H245.202L244.69 500.044C244.69 499.468 244.599 498.972 244.418 498.556C244.237 498.129 243.97 497.804 243.618 497.58C243.266 497.345 242.823 497.228 242.29 497.228C241.735 497.228 241.271 497.356 240.898 497.612C240.525 497.868 240.247 498.22 240.066 498.668C239.885 499.116 239.794 499.644 239.794 500.252C239.794 500.828 239.885 501.345 240.066 501.804C240.247 502.252 240.53 502.609 240.914 502.876C241.298 503.132 241.789 503.26 242.386 503.26C242.983 503.26 243.474 503.132 243.858 502.876C244.242 502.609 244.477 502.3 244.562 501.948H246.306C246.189 502.534 245.949 503.046 245.586 503.484C245.234 503.921 244.786 504.257 244.242 504.492C243.698 504.726 243.079 504.844 242.386 504.844ZM252.229 504.844C251.493 504.844 250.848 504.721 250.293 504.476C249.749 504.22 249.296 503.878 248.933 503.452C248.581 503.014 248.315 502.534 248.133 502.012C247.963 501.478 247.877 500.94 247.877 500.396V500.108C247.877 499.542 247.968 498.998 248.149 498.476C248.331 497.942 248.603 497.462 248.965 497.036C249.328 496.609 249.776 496.273 250.309 496.028C250.853 495.772 251.488 495.644 252.213 495.644C252.949 495.644 253.605 495.782 254.181 496.06C254.768 496.337 255.237 496.732 255.589 497.244C255.941 497.745 256.139 498.332 256.181 499.004H254.373C254.309 498.524 254.091 498.118 253.717 497.788C253.355 497.457 252.853 497.292 252.213 497.292C251.659 497.292 251.2 497.42 250.837 497.676C250.475 497.932 250.203 498.284 250.021 498.732C249.84 499.169 249.749 499.676 249.749 500.252C249.749 500.806 249.835 501.308 250.005 501.756C250.187 502.204 250.459 502.556 250.821 502.812C251.195 503.068 251.664 503.196 252.229 503.196C252.667 503.196 253.04 503.121 253.349 502.972C253.669 502.812 253.925 502.604 254.117 502.348C254.309 502.081 254.421 501.777 254.453 501.436H256.277C256.245 502.129 256.048 502.732 255.685 503.244C255.323 503.745 254.843 504.14 254.245 504.428C253.648 504.705 252.976 504.844 252.229 504.844ZM261.18 504.812C260.166 504.812 259.388 504.486 258.844 503.836C258.3 503.174 258.028 502.204 258.028 500.924V495.932H259.9V501.18C259.9 501.777 260.065 502.252 260.396 502.604C260.726 502.945 261.174 503.116 261.74 503.116C262.316 503.116 262.785 502.934 263.148 502.572C263.521 502.198 263.708 501.692 263.708 501.052V495.932H265.58V504.556H264.092V500.876H264.284C264.284 501.74 264.166 502.465 263.932 503.052C263.708 503.628 263.372 504.065 262.924 504.364C262.486 504.662 261.932 504.812 261.26 504.812H261.18ZM268.36 504.556V495.932H269.848V499.532H269.784C269.784 498.294 270.056 497.372 270.6 496.764C271.144 496.145 271.95 495.836 273.016 495.836H273.32V497.484H272.744C271.934 497.484 271.31 497.702 270.872 498.14C270.446 498.566 270.232 499.18 270.232 499.98V504.556H268.36ZM275.401 504.556V495.932H277.273V504.556H275.401ZM274.137 497.372V495.932H277.273V497.372H274.137ZM276.009 494.732C275.625 494.732 275.337 494.63 275.145 494.428C274.964 494.225 274.873 493.964 274.873 493.644C274.873 493.334 274.964 493.078 275.145 492.876C275.337 492.662 275.625 492.556 276.009 492.556C276.404 492.556 276.692 492.662 276.873 492.876C277.065 493.078 277.161 493.334 277.161 493.644C277.161 493.964 277.065 494.225 276.873 494.428C276.692 494.63 276.404 494.732 276.009 494.732ZM283.6 504.652C282.885 504.652 282.282 504.556 281.792 504.364C281.301 504.172 280.928 503.841 280.672 503.372C280.426 502.902 280.304 502.268 280.304 501.468V493.42H282.08V501.628C282.08 502.076 282.197 502.422 282.432 502.668C282.677 502.902 283.018 503.02 283.456 503.02H284.896V504.652H283.6ZM278.88 497.324V495.932H284.896V497.324H278.88ZM286.507 507.932V506.284H287.931C288.262 506.284 288.544 506.241 288.779 506.156C289.014 506.081 289.206 505.942 289.355 505.74C289.504 505.548 289.627 505.286 289.723 504.956L292.235 495.932H294.043L291.323 505.404C291.152 506.001 290.912 506.486 290.603 506.86C290.304 507.233 289.92 507.505 289.451 507.676C288.992 507.846 288.438 507.932 287.787 507.932H286.507ZM289.163 504.364V502.844H291.019V504.364H289.163ZM288.699 504.364L285.771 495.932H287.675L290.475 504.364H288.699ZM303.425 504.844C302.422 504.844 301.569 504.684 300.865 504.364C300.171 504.033 299.643 503.585 299.281 503.02C298.918 502.444 298.737 501.793 298.737 501.068H300.625C300.625 501.398 300.715 501.724 300.897 502.044C301.078 502.364 301.371 502.63 301.777 502.844C302.182 503.046 302.731 503.148 303.425 503.148C304.054 503.148 304.571 503.057 304.977 502.876C305.393 502.694 305.697 502.454 305.889 502.156C306.091 501.857 306.193 501.526 306.193 501.164C306.193 500.716 306.001 500.353 305.617 500.076C305.233 499.788 304.657 499.612 303.889 499.548L302.721 499.436C301.643 499.35 300.785 499.02 300.145 498.444C299.505 497.857 299.185 497.089 299.185 496.14C299.185 495.414 299.355 494.785 299.697 494.252C300.049 493.718 300.539 493.302 301.169 493.004C301.798 492.694 302.529 492.54 303.361 492.54C304.214 492.54 304.955 492.694 305.585 493.004C306.214 493.302 306.699 493.729 307.041 494.284C307.393 494.828 307.569 495.478 307.569 496.236H305.681C305.681 495.894 305.595 495.574 305.425 495.276C305.265 494.966 305.014 494.716 304.673 494.524C304.331 494.332 303.894 494.236 303.361 494.236C302.849 494.236 302.422 494.326 302.081 494.508C301.75 494.689 301.499 494.924 301.329 495.212C301.158 495.5 301.073 495.809 301.073 496.14C301.073 496.534 301.222 496.886 301.521 497.196C301.819 497.494 302.278 497.67 302.897 497.724L304.049 497.82C304.87 497.884 305.579 498.06 306.177 498.348C306.785 498.625 307.254 498.998 307.585 499.468C307.926 499.937 308.097 500.502 308.097 501.164C308.097 501.889 307.899 502.529 307.505 503.084C307.121 503.638 306.577 504.07 305.873 504.38C305.179 504.689 304.363 504.844 303.425 504.844ZM314.011 504.844C313.264 504.844 312.614 504.716 312.059 504.46C311.504 504.204 311.051 503.868 310.699 503.452C310.347 503.025 310.08 502.55 309.899 502.028C309.728 501.494 309.643 500.95 309.643 500.396V500.092C309.643 499.526 309.728 498.982 309.899 498.46C310.08 497.926 310.347 497.452 310.699 497.036C311.051 496.609 311.494 496.273 312.027 496.028C312.571 495.772 313.2 495.644 313.915 495.644C314.843 495.644 315.616 495.846 316.235 496.252C316.854 496.657 317.318 497.185 317.627 497.836C317.936 498.476 318.091 499.169 318.091 499.916V500.668H310.443V499.404H316.827L316.315 500.044C316.315 499.468 316.224 498.972 316.043 498.556C315.862 498.129 315.595 497.804 315.243 497.58C314.891 497.345 314.448 497.228 313.915 497.228C313.36 497.228 312.896 497.356 312.523 497.612C312.15 497.868 311.872 498.22 311.691 498.668C311.51 499.116 311.419 499.644 311.419 500.252C311.419 500.828 311.51 501.345 311.691 501.804C311.872 502.252 312.155 502.609 312.539 502.876C312.923 503.132 313.414 503.26 314.011 503.26C314.608 503.26 315.099 503.132 315.483 502.876C315.867 502.609 316.102 502.3 316.187 501.948H317.931C317.814 502.534 317.574 503.046 317.211 503.484C316.859 503.921 316.411 504.257 315.867 504.492C315.323 504.726 314.704 504.844 314.011 504.844ZM323.646 504.652C322.932 504.652 322.329 504.556 321.838 504.364C321.348 504.172 320.974 503.841 320.718 503.372C320.473 502.902 320.35 502.268 320.35 501.468V493.42H322.126V501.628C322.126 502.076 322.244 502.422 322.478 502.668C322.724 502.902 323.065 503.02 323.502 503.02H324.942V504.652H323.646ZM318.926 497.324V495.932H324.942V497.324H318.926ZM330.506 504.652C329.791 504.652 329.188 504.556 328.698 504.364C328.207 504.172 327.834 503.841 327.578 503.372C327.332 502.902 327.21 502.268 327.21 501.468V493.42H328.986V501.628C328.986 502.076 329.103 502.422 329.338 502.668C329.583 502.902 329.924 503.02 330.362 503.02H331.802V504.652H330.506ZM325.786 497.324V495.932H331.802V497.324H325.786ZM334.245 504.556V495.932H336.117V504.556H334.245ZM332.981 497.372V495.932H336.117V497.372H332.981ZM334.853 494.732C334.469 494.732 334.181 494.63 333.989 494.428C333.808 494.225 333.717 493.964 333.717 493.644C333.717 493.334 333.808 493.078 333.989 492.876C334.181 492.662 334.469 492.556 334.853 492.556C335.248 492.556 335.536 492.662 335.717 492.876C335.909 493.078 336.005 493.334 336.005 493.644C336.005 493.964 335.909 494.225 335.717 494.428C335.536 494.63 335.248 494.732 334.853 494.732ZM338.907 504.556V495.932H340.395V499.628H340.219C340.219 498.774 340.331 498.054 340.555 497.468C340.79 496.881 341.142 496.438 341.611 496.14C342.081 495.83 342.662 495.676 343.355 495.676H343.435C344.502 495.676 345.297 496.012 345.819 496.684C346.342 497.356 346.603 498.337 346.603 499.628V504.556H344.731V499.372C344.731 498.774 344.561 498.294 344.219 497.932C343.878 497.558 343.409 497.372 342.811 497.372C342.203 497.372 341.713 497.564 341.339 497.948C340.966 498.321 340.779 498.822 340.779 499.452V504.556H338.907ZM352.5 507.932C352.095 507.932 351.684 507.916 351.268 507.884C350.852 507.852 350.463 507.809 350.1 507.756V506.172C350.484 506.225 350.889 506.268 351.316 506.3C351.753 506.342 352.159 506.364 352.532 506.364C353.279 506.364 353.876 506.268 354.324 506.076C354.783 505.884 355.113 505.585 355.316 505.18C355.529 504.785 355.636 504.268 355.636 503.628V501.964L356.132 500.812C356.1 501.644 355.924 502.342 355.604 502.908C355.295 503.473 354.879 503.9 354.356 504.188C353.844 504.476 353.257 504.62 352.596 504.62C351.999 504.62 351.455 504.508 350.964 504.284C350.473 504.06 350.052 503.745 349.7 503.34C349.348 502.934 349.076 502.47 348.884 501.948C348.692 501.414 348.596 500.849 348.596 500.252V499.948C348.596 499.34 348.692 498.774 348.884 498.252C349.087 497.729 349.369 497.276 349.732 496.892C350.095 496.497 350.527 496.193 351.028 495.98C351.54 495.766 352.1 495.66 352.708 495.66C353.412 495.66 354.031 495.814 354.564 496.124C355.108 496.422 355.535 496.865 355.844 497.452C356.153 498.038 356.319 498.753 356.34 499.596L355.924 499.644V495.932H357.412V503.532C357.412 504.577 357.241 505.42 356.9 506.06C356.569 506.71 356.041 507.185 355.316 507.484C354.601 507.782 353.663 507.932 352.5 507.932ZM353.06 502.956C353.529 502.956 353.956 502.854 354.34 502.652C354.735 502.438 355.044 502.14 355.268 501.756C355.503 501.361 355.62 500.892 355.62 500.348V499.692C355.62 499.158 355.497 498.71 355.252 498.348C355.017 497.974 354.708 497.692 354.324 497.5C353.94 497.308 353.524 497.212 353.076 497.212C352.564 497.212 352.111 497.334 351.716 497.58C351.321 497.814 351.012 498.15 350.788 498.588C350.575 499.014 350.468 499.516 350.468 500.092C350.468 500.678 350.58 501.19 350.804 501.628C351.028 502.054 351.332 502.385 351.716 502.62C352.111 502.844 352.559 502.956 353.06 502.956ZM363.04 504.812C361.877 504.812 360.97 504.566 360.32 504.076C359.68 503.585 359.344 502.908 359.312 502.044H361.039C361.061 502.364 361.226 502.657 361.536 502.924C361.845 503.19 362.352 503.324 363.056 503.324C363.653 503.324 364.122 503.206 364.464 502.972C364.805 502.737 364.976 502.444 364.976 502.092C364.976 501.772 364.848 501.521 364.592 501.34C364.346 501.148 363.925 501.02 363.328 500.956L362.48 500.876C361.594 500.78 360.89 500.518 360.368 500.092C359.856 499.665 359.6 499.089 359.6 498.364C359.6 497.788 359.744 497.302 360.032 496.908C360.32 496.513 360.714 496.209 361.216 495.996C361.728 495.782 362.314 495.676 362.976 495.676C364 495.676 364.826 495.905 365.456 496.364C366.085 496.812 366.41 497.473 366.432 498.348H364.72C364.698 498.017 364.544 497.74 364.256 497.516C363.968 497.292 363.541 497.18 362.976 497.18C362.442 497.18 362.032 497.286 361.744 497.5C361.466 497.713 361.328 497.985 361.328 498.316C361.328 498.614 361.434 498.849 361.648 499.02C361.861 499.19 362.208 499.302 362.688 499.356L363.536 499.436C364.506 499.542 365.274 499.814 365.84 500.252C366.416 500.678 366.704 501.276 366.704 502.044C366.704 502.598 366.549 503.084 366.24 503.5C365.93 503.916 365.498 504.241 364.944 504.476C364.4 504.7 363.765 504.812 363.04 504.812ZM369.026 507.148L367.554 506.572L369.106 502.188L370.674 502.78L369.026 507.148ZM376.599 504.556V492.876H378.503V504.556H376.599ZM378.183 504.556V502.892H383.655V504.556H378.183ZM378.183 499.452V497.788H383.207V499.452H378.183ZM378.183 494.54V492.876H383.511V494.54H378.183ZM385.97 504.556V495.932H387.458V499.628H387.282C387.282 498.774 387.394 498.054 387.618 497.468C387.852 496.881 388.204 496.438 388.674 496.14C389.143 495.83 389.724 495.676 390.418 495.676H390.498C391.564 495.676 392.359 496.012 392.882 496.684C393.404 497.356 393.666 498.337 393.666 499.628V504.556H391.794V499.372C391.794 498.774 391.623 498.294 391.282 497.932C390.94 497.558 390.471 497.372 389.874 497.372C389.266 497.372 388.775 497.564 388.402 497.948C388.028 498.321 387.842 498.822 387.842 499.452V504.556H385.97ZM401.467 504.556V501.98H401.163V499.068C401.163 498.534 401.024 498.129 400.747 497.852C400.469 497.574 400.059 497.436 399.515 497.436C399.216 497.436 398.885 497.441 398.523 497.452C398.16 497.462 397.803 497.478 397.451 497.5C397.109 497.51 396.805 497.526 396.539 497.548V495.932C396.773 495.91 397.029 495.894 397.307 495.884C397.595 495.862 397.888 495.846 398.187 495.836C398.496 495.825 398.789 495.82 399.067 495.82C399.941 495.82 400.667 495.932 401.243 496.156C401.819 496.38 402.245 496.737 402.523 497.228C402.811 497.708 402.955 498.353 402.955 499.164V504.556H401.467ZM398.667 504.78C398.037 504.78 397.488 504.673 397.019 504.46C396.549 504.236 396.187 503.916 395.931 503.5C395.675 503.073 395.547 502.566 395.547 501.98C395.547 501.361 395.691 500.849 395.979 500.444C396.277 500.038 396.699 499.734 397.243 499.532C397.787 499.329 398.437 499.228 399.195 499.228H401.355V500.46H399.147C398.581 500.46 398.149 500.598 397.851 500.876C397.552 501.142 397.403 501.494 397.403 501.932C397.403 502.369 397.552 502.721 397.851 502.988C398.149 503.244 398.581 503.372 399.147 503.372C399.477 503.372 399.792 503.313 400.091 503.196C400.389 503.068 400.635 502.86 400.827 502.572C401.029 502.284 401.141 501.878 401.163 501.356L401.643 501.98C401.589 502.588 401.44 503.1 401.195 503.516C400.96 503.921 400.629 504.236 400.203 504.46C399.787 504.673 399.275 504.78 398.667 504.78ZM410.364 504.844C409.66 504.844 409.03 504.689 408.476 504.38C407.932 504.07 407.5 503.622 407.18 503.036C406.87 502.449 406.7 501.74 406.668 500.908H407.052V504.556H405.564V492.876H407.436V498.636L406.876 499.676C406.908 498.758 407.084 498.006 407.404 497.42C407.734 496.822 408.166 496.38 408.7 496.092C409.233 495.804 409.83 495.66 410.492 495.66C411.1 495.66 411.649 495.772 412.14 495.996C412.641 496.22 413.068 496.534 413.42 496.94C413.782 497.334 414.054 497.798 414.236 498.332C414.428 498.865 414.524 499.441 414.524 500.06V500.38C414.524 500.998 414.428 501.574 414.236 502.108C414.044 502.641 413.761 503.116 413.388 503.532C413.025 503.937 412.588 504.257 412.076 504.492C411.564 504.726 410.993 504.844 410.364 504.844ZM410.028 503.228C410.55 503.228 411.009 503.1 411.404 502.844C411.798 502.588 412.102 502.236 412.316 501.788C412.54 501.329 412.652 500.806 412.652 500.22C412.652 499.622 412.54 499.105 412.316 498.668C412.092 498.22 411.782 497.873 411.388 497.628C411.004 497.382 410.55 497.26 410.028 497.26C409.558 497.26 409.121 497.366 408.716 497.58C408.31 497.793 407.985 498.102 407.74 498.508C407.494 498.902 407.372 499.382 407.372 499.948V500.636C407.372 501.18 407.494 501.649 407.74 502.044C407.996 502.428 408.326 502.721 408.732 502.924C409.137 503.126 409.569 503.228 410.028 503.228ZM416.769 504.556V492.876H418.657V504.556H416.769ZM415.633 494.316V492.876H418.657V494.316H415.633ZM425.167 504.844C424.421 504.844 423.77 504.716 423.215 504.46C422.661 504.204 422.207 503.868 421.855 503.452C421.503 503.025 421.237 502.55 421.055 502.028C420.885 501.494 420.799 500.95 420.799 500.396V500.092C420.799 499.526 420.885 498.982 421.055 498.46C421.237 497.926 421.503 497.452 421.855 497.036C422.207 496.609 422.65 496.273 423.183 496.028C423.727 495.772 424.357 495.644 425.071 495.644C425.999 495.644 426.773 495.846 427.391 496.252C428.01 496.657 428.474 497.185 428.783 497.836C429.093 498.476 429.247 499.169 429.247 499.916V500.668H421.599V499.404H427.983L427.471 500.044C427.471 499.468 427.381 498.972 427.199 498.556C427.018 498.129 426.751 497.804 426.399 497.58C426.047 497.345 425.605 497.228 425.071 497.228C424.517 497.228 424.053 497.356 423.679 497.612C423.306 497.868 423.029 498.22 422.847 498.668C422.666 499.116 422.575 499.644 422.575 500.252C422.575 500.828 422.666 501.345 422.847 501.804C423.029 502.252 423.311 502.609 423.695 502.876C424.079 503.132 424.57 503.26 425.167 503.26C425.765 503.26 426.255 503.132 426.639 502.876C427.023 502.609 427.258 502.3 427.343 501.948H429.087C428.97 502.534 428.73 503.046 428.367 503.484C428.015 503.921 427.567 504.257 427.023 504.492C426.479 504.726 425.861 504.844 425.167 504.844ZM433.806 504.556L437.902 492.876H441.086L445.31 504.556H443.326L439.63 494.156L440.414 494.524H438.478L439.31 494.156L435.726 504.556H433.806ZM436.462 501.26L437.07 499.596H441.966L442.59 501.26H436.462ZM447.05 504.556V492.876H448.938V504.556H447.05ZM445.914 494.316V492.876H448.938V494.316H445.914ZM455.449 504.844C454.702 504.844 454.051 504.716 453.497 504.46C452.942 504.204 452.489 503.868 452.137 503.452C451.785 503.025 451.518 502.55 451.337 502.028C451.166 501.494 451.081 500.95 451.081 500.396V500.092C451.081 499.526 451.166 498.982 451.337 498.46C451.518 497.926 451.785 497.452 452.137 497.036C452.489 496.609 452.931 496.273 453.465 496.028C454.009 495.772 454.638 495.644 455.353 495.644C456.281 495.644 457.054 495.846 457.673 496.252C458.291 496.657 458.755 497.185 459.065 497.836C459.374 498.476 459.529 499.169 459.529 499.916V500.668H451.881V499.404H458.265L457.753 500.044C457.753 499.468 457.662 498.972 457.481 498.556C457.299 498.129 457.033 497.804 456.681 497.58C456.329 497.345 455.886 497.228 455.353 497.228C454.798 497.228 454.334 497.356 453.961 497.612C453.587 497.868 453.31 498.22 453.129 498.668C452.947 499.116 452.857 499.644 452.857 500.252C452.857 500.828 452.947 501.345 453.129 501.804C453.31 502.252 453.593 502.609 453.977 502.876C454.361 503.132 454.851 503.26 455.449 503.26C456.046 503.26 456.537 503.132 456.921 502.876C457.305 502.609 457.539 502.3 457.625 501.948H459.369C459.251 502.534 459.011 503.046 458.649 503.484C458.297 503.921 457.849 504.257 457.305 504.492C456.761 504.726 456.142 504.844 455.449 504.844ZM461.548 504.556V495.932H463.036V499.532H462.972C462.972 498.294 463.244 497.372 463.788 496.764C464.332 496.145 465.137 495.836 466.204 495.836H466.508V497.484H465.932C465.121 497.484 464.497 497.702 464.06 498.14C463.633 498.566 463.42 499.18 463.42 499.98V504.556H461.548ZM471.881 504.652C471.166 504.652 470.563 504.556 470.073 504.364C469.582 504.172 469.209 503.841 468.953 503.372C468.707 502.902 468.585 502.268 468.585 501.468V493.42H470.361V501.628C470.361 502.076 470.478 502.422 470.713 502.668C470.958 502.902 471.299 503.02 471.737 503.02H473.177V504.652H471.881ZM467.161 497.324V495.932H473.177V497.324H467.161ZM478.118 504.812C476.955 504.812 476.048 504.566 475.398 504.076C474.758 503.585 474.422 502.908 474.39 502.044H476.118C476.139 502.364 476.304 502.657 476.614 502.924C476.923 503.19 477.43 503.324 478.134 503.324C478.731 503.324 479.2 503.206 479.542 502.972C479.883 502.737 480.054 502.444 480.054 502.092C480.054 501.772 479.926 501.521 479.67 501.34C479.424 501.148 479.003 501.02 478.406 500.956L477.558 500.876C476.672 500.78 475.968 500.518 475.446 500.092C474.934 499.665 474.678 499.089 474.678 498.364C474.678 497.788 474.822 497.302 475.11 496.908C475.398 496.513 475.792 496.209 476.294 495.996C476.806 495.782 477.392 495.676 478.054 495.676C479.078 495.676 479.904 495.905 480.534 496.364C481.163 496.812 481.488 497.473 481.51 498.348H479.798C479.776 498.017 479.622 497.74 479.334 497.516C479.046 497.292 478.619 497.18 478.054 497.18C477.52 497.18 477.11 497.286 476.822 497.5C476.544 497.713 476.406 497.985 476.406 498.316C476.406 498.614 476.512 498.849 476.726 499.02C476.939 499.19 477.286 499.302 477.766 499.356L478.614 499.436C479.584 499.542 480.352 499.814 480.918 500.252C481.494 500.678 481.782 501.276 481.782 502.044C481.782 502.598 481.627 503.084 481.318 503.5C481.008 503.916 480.576 504.241 480.022 504.476C479.478 504.7 478.843 504.812 478.118 504.812ZM484.105 507.148L482.633 506.572L484.185 502.188L485.753 502.78L484.105 507.148ZM490.477 504.556L494.573 492.876H497.757L501.981 504.556H499.997L496.301 494.156L497.085 494.524H495.149L495.981 494.156L492.397 504.556H490.477ZM493.133 501.26L493.741 499.596H498.637L499.261 501.26H493.133ZM503.72 504.556V495.932H505.208V499.628H505.032C505.032 498.774 505.144 498.054 505.368 497.468C505.602 496.881 505.954 496.438 506.424 496.14C506.893 495.83 507.474 495.676 508.168 495.676H508.248C509.314 495.676 510.109 496.012 510.632 496.684C511.154 497.356 511.416 498.337 511.416 499.628V504.556H509.544V499.372C509.544 498.774 509.373 498.294 509.032 497.932C508.69 497.558 508.221 497.372 507.624 497.372C507.016 497.372 506.525 497.564 506.152 497.948C505.778 498.321 505.592 498.822 505.592 499.452V504.556H503.72ZM517.601 504.844C516.982 504.844 516.417 504.732 515.905 504.508C515.403 504.284 514.961 503.969 514.577 503.564C514.203 503.158 513.915 502.689 513.713 502.156C513.51 501.622 513.409 501.041 513.409 500.412V500.108C513.409 499.489 513.505 498.913 513.697 498.38C513.899 497.836 514.182 497.361 514.545 496.956C514.907 496.55 515.339 496.236 515.841 496.012C516.353 495.777 516.918 495.66 517.537 495.66C518.198 495.66 518.79 495.804 519.313 496.092C519.846 496.369 520.273 496.801 520.593 497.388C520.923 497.964 521.105 498.7 521.137 499.596L520.497 498.716V492.876H522.369V504.556H520.881V500.812H521.297C521.265 501.74 521.073 502.502 520.721 503.1C520.379 503.697 519.937 504.14 519.393 504.428C518.849 504.705 518.251 504.844 517.601 504.844ZM517.953 503.228C518.433 503.228 518.865 503.121 519.249 502.908C519.643 502.694 519.958 502.385 520.193 501.98C520.438 501.564 520.561 501.078 520.561 500.524V499.836C520.561 499.292 520.438 498.828 520.193 498.444C519.947 498.06 519.627 497.766 519.233 497.564C518.838 497.361 518.406 497.26 517.937 497.26C517.414 497.26 516.95 497.388 516.545 497.644C516.15 497.889 515.841 498.236 515.617 498.684C515.393 499.132 515.281 499.654 515.281 500.252C515.281 500.86 515.393 501.388 515.617 501.836C515.851 502.284 516.171 502.63 516.577 502.876C516.982 503.11 517.441 503.228 517.953 503.228ZM159.912 528.556V516.876H162.504L165.704 524.252H165.976L169.144 516.876H171.768V528.556H169.864V518.588L170.056 518.62L166.824 526.156H164.712L161.448 518.62L161.672 518.588V528.556H159.912ZM178.752 528.844C177.995 528.844 177.328 528.721 176.752 528.476C176.176 528.22 175.691 527.884 175.296 527.468C174.901 527.052 174.603 526.582 174.4 526.06C174.197 525.526 174.096 524.977 174.096 524.412V524.092C174.096 523.526 174.197 522.977 174.4 522.444C174.613 521.91 174.917 521.436 175.312 521.02C175.717 520.593 176.208 520.257 176.784 520.012C177.36 519.766 178.016 519.644 178.752 519.644C179.488 519.644 180.139 519.766 180.704 520.012C181.28 520.257 181.771 520.593 182.176 521.02C182.581 521.436 182.885 521.91 183.088 522.444C183.301 522.977 183.408 523.526 183.408 524.092V524.412C183.408 524.977 183.307 525.526 183.104 526.06C182.901 526.582 182.603 527.052 182.208 527.468C181.813 527.884 181.328 528.22 180.752 528.476C180.176 528.721 179.509 528.844 178.752 528.844ZM178.752 527.212C179.339 527.212 179.84 527.084 180.256 526.828C180.672 526.561 180.987 526.204 181.2 525.756C181.424 525.308 181.536 524.806 181.536 524.252C181.536 523.686 181.424 523.18 181.2 522.732C180.976 522.284 180.656 521.932 180.24 521.676C179.824 521.409 179.328 521.276 178.752 521.276C178.176 521.276 177.68 521.409 177.264 521.676C176.848 521.932 176.528 522.284 176.304 522.732C176.08 523.18 175.968 523.686 175.968 524.252C175.968 524.806 176.075 525.308 176.288 525.756C176.512 526.204 176.832 526.561 177.248 526.828C177.664 527.084 178.165 527.212 178.752 527.212ZM185.548 528.556V519.932H187.036V523.628H186.86C186.86 522.774 186.972 522.054 187.196 521.468C187.431 520.881 187.783 520.438 188.252 520.14C188.721 519.83 189.303 519.676 189.996 519.676H190.076C191.143 519.676 191.937 520.012 192.46 520.684C192.983 521.356 193.244 522.337 193.244 523.628V528.556H191.372V523.372C191.372 522.774 191.201 522.294 190.86 521.932C190.519 521.558 190.049 521.372 189.452 521.372C188.844 521.372 188.353 521.564 187.98 521.948C187.607 522.321 187.42 522.822 187.42 523.452V528.556H185.548ZM196.261 528.556V519.932H198.133V528.556H196.261ZM194.997 521.372V519.932H198.133V521.372H194.997ZM196.869 518.732C196.485 518.732 196.197 518.63 196.005 518.428C195.823 518.225 195.733 517.964 195.733 517.644C195.733 517.334 195.823 517.078 196.005 516.876C196.197 516.662 196.485 516.556 196.869 516.556C197.263 516.556 197.551 516.662 197.733 516.876C197.925 517.078 198.021 517.334 198.021 517.644C198.021 517.964 197.925 518.225 197.733 518.428C197.551 518.63 197.263 518.732 196.869 518.732ZM204.459 528.652C203.744 528.652 203.142 528.556 202.651 528.364C202.16 528.172 201.787 527.841 201.531 527.372C201.286 526.902 201.163 526.268 201.163 525.468V517.42H202.939V525.628C202.939 526.076 203.056 526.422 203.291 526.668C203.536 526.902 203.878 527.02 204.315 527.02H205.755V528.652H204.459ZM199.739 521.324V519.932H205.755V521.324H199.739ZM211.783 528.844C211.026 528.844 210.359 528.721 209.783 528.476C209.207 528.22 208.722 527.884 208.327 527.468C207.933 527.052 207.634 526.582 207.431 526.06C207.229 525.526 207.127 524.977 207.127 524.412V524.092C207.127 523.526 207.229 522.977 207.431 522.444C207.645 521.91 207.949 521.436 208.343 521.02C208.749 520.593 209.239 520.257 209.815 520.012C210.391 519.766 211.047 519.644 211.783 519.644C212.519 519.644 213.17 519.766 213.735 520.012C214.311 520.257 214.802 520.593 215.207 521.02C215.613 521.436 215.917 521.91 216.119 522.444C216.333 522.977 216.439 523.526 216.439 524.092V524.412C216.439 524.977 216.338 525.526 216.135 526.06C215.933 526.582 215.634 527.052 215.239 527.468C214.845 527.884 214.359 528.22 213.783 528.476C213.207 528.721 212.541 528.844 211.783 528.844ZM211.783 527.212C212.37 527.212 212.871 527.084 213.287 526.828C213.703 526.561 214.018 526.204 214.231 525.756C214.455 525.308 214.567 524.806 214.567 524.252C214.567 523.686 214.455 523.18 214.231 522.732C214.007 522.284 213.687 521.932 213.271 521.676C212.855 521.409 212.359 521.276 211.783 521.276C211.207 521.276 210.711 521.409 210.295 521.676C209.879 521.932 209.559 522.284 209.335 522.732C209.111 523.18 208.999 523.686 208.999 524.252C208.999 524.806 209.106 525.308 209.319 525.756C209.543 526.204 209.863 526.561 210.279 526.828C210.695 527.084 211.197 527.212 211.783 527.212ZM218.579 528.556V519.932H220.067V523.532H220.003C220.003 522.294 220.275 521.372 220.819 520.764C221.363 520.145 222.168 519.836 223.235 519.836H223.539V521.484H222.963C222.152 521.484 221.528 521.702 221.091 522.14C220.664 522.566 220.451 523.18 220.451 523.98V528.556H218.579ZM227.743 528.556L231.839 516.876H235.023L239.247 528.556H237.263L233.567 518.156L234.351 518.524H232.415L233.247 518.156L229.663 528.556H227.743ZM230.399 525.26L231.007 523.596H235.903L236.527 525.26H230.399ZM244.62 528.844C243.884 528.844 243.239 528.721 242.684 528.476C242.14 528.22 241.687 527.878 241.324 527.452C240.972 527.014 240.705 526.534 240.524 526.012C240.353 525.478 240.268 524.94 240.268 524.396V524.108C240.268 523.542 240.359 522.998 240.54 522.476C240.721 521.942 240.993 521.462 241.356 521.036C241.719 520.609 242.167 520.273 242.7 520.028C243.244 519.772 243.879 519.644 244.604 519.644C245.34 519.644 245.996 519.782 246.572 520.06C247.159 520.337 247.628 520.732 247.98 521.244C248.332 521.745 248.529 522.332 248.572 523.004H246.764C246.7 522.524 246.481 522.118 246.108 521.788C245.745 521.457 245.244 521.292 244.604 521.292C244.049 521.292 243.591 521.42 243.228 521.676C242.865 521.932 242.593 522.284 242.412 522.732C242.231 523.169 242.14 523.676 242.14 524.252C242.14 524.806 242.225 525.308 242.396 525.756C242.577 526.204 242.849 526.556 243.212 526.812C243.585 527.068 244.055 527.196 244.62 527.196C245.057 527.196 245.431 527.121 245.74 526.972C246.06 526.812 246.316 526.604 246.508 526.348C246.7 526.081 246.812 525.777 246.844 525.436H248.668C248.636 526.129 248.439 526.732 248.076 527.244C247.713 527.745 247.233 528.14 246.636 528.428C246.039 528.705 245.367 528.844 244.62 528.844ZM254.146 528.652C253.432 528.652 252.829 528.556 252.338 528.364C251.848 528.172 251.474 527.841 251.218 527.372C250.973 526.902 250.85 526.268 250.85 525.468V517.42H252.626V525.628C252.626 526.076 252.744 526.422 252.978 526.668C253.224 526.902 253.565 527.02 254.002 527.02H255.442V528.652H254.146ZM249.426 521.324V519.932H255.442V521.324H249.426ZM257.886 528.556V519.932H259.758V528.556H257.886ZM256.622 521.372V519.932H259.758V521.372H256.622ZM258.494 518.732C258.11 518.732 257.822 518.63 257.63 518.428C257.448 518.225 257.358 517.964 257.358 517.644C257.358 517.334 257.448 517.078 257.63 516.876C257.822 516.662 258.11 516.556 258.494 516.556C258.888 516.556 259.176 516.662 259.358 516.876C259.55 517.078 259.646 517.334 259.646 517.644C259.646 517.964 259.55 518.225 259.358 518.428C259.176 518.63 258.888 518.732 258.494 518.732ZM264.324 528.556L261.508 519.932H263.46L266.18 528.556H264.324ZM264.852 528.556V527.036H266.948V528.556H264.852ZM265.652 528.556L268.02 519.932H269.844L267.396 528.556H265.652ZM272.12 528.556V519.932H273.992V528.556H272.12ZM270.856 521.372V519.932H273.992V521.372H270.856ZM272.728 518.732C272.344 518.732 272.056 518.63 271.864 518.428C271.683 518.225 271.592 517.964 271.592 517.644C271.592 517.334 271.683 517.078 271.864 516.876C272.056 516.662 272.344 516.556 272.728 516.556C273.123 516.556 273.411 516.662 273.592 516.876C273.784 517.078 273.88 517.334 273.88 517.644C273.88 517.964 273.784 518.225 273.592 518.428C273.411 518.63 273.123 518.732 272.728 518.732ZM280.318 528.652C279.604 528.652 279.001 528.556 278.51 528.364C278.02 528.172 277.646 527.841 277.39 527.372C277.145 526.902 277.022 526.268 277.022 525.468V517.42H278.798V525.628C278.798 526.076 278.916 526.422 279.15 526.668C279.396 526.902 279.737 527.02 280.174 527.02H281.614V528.652H280.318ZM275.598 521.324V519.932H281.614V521.324H275.598ZM283.226 531.932V530.284H284.65C284.98 530.284 285.263 530.241 285.498 530.156C285.732 530.081 285.924 529.942 286.074 529.74C286.223 529.548 286.346 529.286 286.442 528.956L288.954 519.932H290.762L288.042 529.404C287.871 530.001 287.631 530.486 287.322 530.86C287.023 531.233 286.639 531.505 286.17 531.676C285.711 531.846 285.156 531.932 284.506 531.932H283.226ZM285.882 528.364V526.844H287.738V528.364H285.882ZM285.418 528.364L282.49 519.932H284.394L287.194 528.364H285.418ZM291.587 528.556V526.3H293.763V528.556H291.587ZM303.8 528.844C302.797 528.844 301.944 528.684 301.24 528.364C300.546 528.033 300.018 527.585 299.656 527.02C299.293 526.444 299.112 525.793 299.112 525.068H301C301 525.398 301.09 525.724 301.272 526.044C301.453 526.364 301.746 526.63 302.152 526.844C302.557 527.046 303.106 527.148 303.8 527.148C304.429 527.148 304.946 527.057 305.352 526.876C305.768 526.694 306.072 526.454 306.264 526.156C306.466 525.857 306.568 525.526 306.568 525.164C306.568 524.716 306.376 524.353 305.992 524.076C305.608 523.788 305.032 523.612 304.264 523.548L303.096 523.436C302.018 523.35 301.16 523.02 300.52 522.444C299.88 521.857 299.56 521.089 299.56 520.14C299.56 519.414 299.73 518.785 300.072 518.252C300.424 517.718 300.914 517.302 301.544 517.004C302.173 516.694 302.904 516.54 303.736 516.54C304.589 516.54 305.33 516.694 305.96 517.004C306.589 517.302 307.074 517.729 307.416 518.284C307.768 518.828 307.944 519.478 307.944 520.236H306.056C306.056 519.894 305.97 519.574 305.8 519.276C305.64 518.966 305.389 518.716 305.048 518.524C304.706 518.332 304.269 518.236 303.736 518.236C303.224 518.236 302.797 518.326 302.456 518.508C302.125 518.689 301.874 518.924 301.704 519.212C301.533 519.5 301.448 519.809 301.448 520.14C301.448 520.534 301.597 520.886 301.896 521.196C302.194 521.494 302.653 521.67 303.272 521.724L304.424 521.82C305.245 521.884 305.954 522.06 306.552 522.348C307.16 522.625 307.629 522.998 307.96 523.468C308.301 523.937 308.472 524.502 308.472 525.164C308.472 525.889 308.274 526.529 307.88 527.084C307.496 527.638 306.952 528.07 306.248 528.38C305.554 528.689 304.738 528.844 303.8 528.844ZM314.162 528.652C313.447 528.652 312.845 528.556 312.354 528.364C311.863 528.172 311.49 527.841 311.234 527.372C310.989 526.902 310.866 526.268 310.866 525.468V517.42H312.642V525.628C312.642 526.076 312.759 526.422 312.994 526.668C313.239 526.902 313.581 527.02 314.018 527.02H315.458V528.652H314.162ZM309.442 521.324V519.932H315.458V521.324H309.442ZM322.654 528.556V525.98H322.35V523.068C322.35 522.534 322.211 522.129 321.934 521.852C321.657 521.574 321.246 521.436 320.702 521.436C320.403 521.436 320.073 521.441 319.71 521.452C319.347 521.462 318.99 521.478 318.638 521.5C318.297 521.51 317.993 521.526 317.726 521.548V519.932C317.961 519.91 318.217 519.894 318.494 519.884C318.782 519.862 319.075 519.846 319.374 519.836C319.683 519.825 319.977 519.82 320.254 519.82C321.129 519.82 321.854 519.932 322.43 520.156C323.006 520.38 323.433 520.737 323.71 521.228C323.998 521.708 324.142 522.353 324.142 523.164V528.556H322.654ZM319.854 528.78C319.225 528.78 318.675 528.673 318.206 528.46C317.737 528.236 317.374 527.916 317.118 527.5C316.862 527.073 316.734 526.566 316.734 525.98C316.734 525.361 316.878 524.849 317.166 524.444C317.465 524.038 317.886 523.734 318.43 523.532C318.974 523.329 319.625 523.228 320.382 523.228H322.542V524.46H320.334C319.769 524.46 319.337 524.598 319.038 524.876C318.739 525.142 318.59 525.494 318.59 525.932C318.59 526.369 318.739 526.721 319.038 526.988C319.337 527.244 319.769 527.372 320.334 527.372C320.665 527.372 320.979 527.313 321.278 527.196C321.577 527.068 321.822 526.86 322.014 526.572C322.217 526.284 322.329 525.878 322.35 525.356L322.83 525.98C322.777 526.588 322.627 527.1 322.382 527.516C322.147 527.921 321.817 528.236 321.39 528.46C320.974 528.673 320.462 528.78 319.854 528.78ZM326.273 531.932V530.284H327.697C328.027 530.284 328.31 530.241 328.545 530.156C328.779 530.081 328.971 529.942 329.121 529.74C329.27 529.548 329.393 529.286 329.489 528.956L332.001 519.932H333.809L331.089 529.404C330.918 530.001 330.678 530.486 330.369 530.86C330.07 531.233 329.686 531.505 329.217 531.676C328.758 531.846 328.203 531.932 327.553 531.932H326.273ZM328.929 528.364V526.844H330.785V528.364H328.929ZM328.465 528.364L325.537 519.932H327.441L330.241 528.364H328.465ZM343.19 528.844C342.188 528.844 341.334 528.684 340.63 528.364C339.937 528.033 339.409 527.585 339.046 527.02C338.684 526.444 338.502 525.793 338.502 525.068H340.39C340.39 525.398 340.481 525.724 340.662 526.044C340.844 526.364 341.137 526.63 341.542 526.844C341.948 527.046 342.497 527.148 343.19 527.148C343.82 527.148 344.337 527.057 344.742 526.876C345.158 526.694 345.462 526.454 345.654 526.156C345.857 525.857 345.958 525.526 345.958 525.164C345.958 524.716 345.766 524.353 345.382 524.076C344.998 523.788 344.422 523.612 343.654 523.548L342.486 523.436C341.409 523.35 340.55 523.02 339.91 522.444C339.27 521.857 338.95 521.089 338.95 520.14C338.95 519.414 339.121 518.785 339.462 518.252C339.814 517.718 340.305 517.302 340.934 517.004C341.564 516.694 342.294 516.54 343.126 516.54C343.98 516.54 344.721 516.694 345.35 517.004C345.98 517.302 346.465 517.729 346.806 518.284C347.158 518.828 347.334 519.478 347.334 520.236H345.446C345.446 519.894 345.361 519.574 345.19 519.276C345.03 518.966 344.78 518.716 344.438 518.524C344.097 518.332 343.66 518.236 343.126 518.236C342.614 518.236 342.188 518.326 341.846 518.508C341.516 518.689 341.265 518.924 341.094 519.212C340.924 519.5 340.838 519.809 340.838 520.14C340.838 520.534 340.988 520.886 341.286 521.196C341.585 521.494 342.044 521.67 342.662 521.724L343.814 521.82C344.636 521.884 345.345 522.06 345.942 522.348C346.55 522.625 347.02 522.998 347.35 523.468C347.692 523.937 347.862 524.502 347.862 525.164C347.862 525.889 347.665 526.529 347.27 527.084C346.886 527.638 346.342 528.07 345.638 528.38C344.945 528.689 344.129 528.844 343.19 528.844ZM355.217 528.556V525.98H354.913V523.068C354.913 522.534 354.774 522.129 354.497 521.852C354.219 521.574 353.809 521.436 353.265 521.436C352.966 521.436 352.635 521.441 352.273 521.452C351.91 521.462 351.553 521.478 351.201 521.5C350.859 521.51 350.555 521.526 350.289 521.548V519.932C350.523 519.91 350.779 519.894 351.057 519.884C351.345 519.862 351.638 519.846 351.937 519.836C352.246 519.825 352.539 519.82 352.817 519.82C353.691 519.82 354.417 519.932 354.993 520.156C355.569 520.38 355.995 520.737 356.273 521.228C356.561 521.708 356.705 522.353 356.705 523.164V528.556H355.217ZM352.417 528.78C351.787 528.78 351.238 528.673 350.769 528.46C350.299 528.236 349.937 527.916 349.681 527.5C349.425 527.073 349.297 526.566 349.297 525.98C349.297 525.361 349.441 524.849 349.729 524.444C350.027 524.038 350.449 523.734 350.993 523.532C351.537 523.329 352.187 523.228 352.945 523.228H355.105V524.46H352.897C352.331 524.46 351.899 524.598 351.601 524.876C351.302 525.142 351.153 525.494 351.153 525.932C351.153 526.369 351.302 526.721 351.601 526.988C351.899 527.244 352.331 527.372 352.897 527.372C353.227 527.372 353.542 527.313 353.841 527.196C354.139 527.068 354.385 526.86 354.577 526.572C354.779 526.284 354.891 525.878 354.913 525.356L355.393 525.98C355.339 526.588 355.19 527.1 354.945 527.516C354.71 527.921 354.379 528.236 353.953 528.46C353.537 528.673 353.025 528.78 352.417 528.78ZM359.522 528.556V519.628C359.522 518.657 359.783 517.942 360.306 517.484C360.839 517.014 361.612 516.78 362.626 516.78H363.714V518.268H362.418C362.066 518.268 361.788 518.369 361.586 518.572C361.394 518.774 361.298 519.052 361.298 519.404V528.556H359.522ZM358.386 521.452V520.06H363.858V521.452H358.386ZM369.105 528.844C368.358 528.844 367.707 528.716 367.153 528.46C366.598 528.204 366.145 527.868 365.793 527.452C365.441 527.025 365.174 526.55 364.993 526.028C364.822 525.494 364.737 524.95 364.737 524.396V524.092C364.737 523.526 364.822 522.982 364.993 522.46C365.174 521.926 365.441 521.452 365.793 521.036C366.145 520.609 366.587 520.273 367.121 520.028C367.665 519.772 368.294 519.644 369.009 519.644C369.937 519.644 370.71 519.846 371.329 520.252C371.947 520.657 372.411 521.185 372.721 521.836C373.03 522.476 373.185 523.169 373.185 523.916V524.668H365.537V523.404H371.921L371.409 524.044C371.409 523.468 371.318 522.972 371.137 522.556C370.955 522.129 370.689 521.804 370.337 521.58C369.985 521.345 369.542 521.228 369.009 521.228C368.454 521.228 367.99 521.356 367.617 521.612C367.243 521.868 366.966 522.22 366.785 522.668C366.603 523.116 366.513 523.644 366.513 524.252C366.513 524.828 366.603 525.345 366.785 525.804C366.966 526.252 367.249 526.609 367.633 526.876C368.017 527.132 368.507 527.26 369.105 527.26C369.702 527.26 370.193 527.132 370.577 526.876C370.961 526.609 371.195 526.3 371.281 525.948H373.025C372.907 526.534 372.667 527.046 372.305 527.484C371.953 527.921 371.505 528.257 370.961 528.492C370.417 528.726 369.798 528.844 369.105 528.844ZM377.743 528.556L381.839 516.876H385.023L389.247 528.556H387.263L383.567 518.156L384.351 518.524H382.415L383.247 518.156L379.663 528.556H377.743ZM380.399 525.26L381.007 523.596H385.903L386.527 525.26H380.399ZM390.985 528.556V519.932H392.473V523.628H392.297C392.297 522.774 392.409 522.054 392.633 521.468C392.868 520.881 393.22 520.438 393.689 520.14C394.159 519.83 394.74 519.676 395.433 519.676H395.513C396.58 519.676 397.375 520.012 397.897 520.684C398.42 521.356 398.681 522.337 398.681 523.628V528.556H396.809V523.372C396.809 522.774 396.639 522.294 396.297 521.932C395.956 521.558 395.487 521.372 394.889 521.372C394.281 521.372 393.791 521.564 393.417 521.948C393.044 522.321 392.857 522.822 392.857 523.452V528.556H390.985ZM404.866 528.844C404.248 528.844 403.682 528.732 403.17 528.508C402.669 528.284 402.226 527.969 401.842 527.564C401.469 527.158 401.181 526.689 400.978 526.156C400.776 525.622 400.674 525.041 400.674 524.412V524.108C400.674 523.489 400.77 522.913 400.962 522.38C401.165 521.836 401.448 521.361 401.81 520.956C402.173 520.55 402.605 520.236 403.106 520.012C403.618 519.777 404.184 519.66 404.802 519.66C405.464 519.66 406.056 519.804 406.578 520.092C407.112 520.369 407.538 520.801 407.858 521.388C408.189 521.964 408.37 522.7 408.402 523.596L407.762 522.716V516.876H409.634V528.556H408.146V524.812H408.562C408.53 525.74 408.338 526.502 407.986 527.1C407.645 527.697 407.202 528.14 406.658 528.428C406.114 528.705 405.517 528.844 404.866 528.844ZM405.218 527.228C405.698 527.228 406.13 527.121 406.514 526.908C406.909 526.694 407.224 526.385 407.458 525.98C407.704 525.564 407.826 525.078 407.826 524.524V523.836C407.826 523.292 407.704 522.828 407.458 522.444C407.213 522.06 406.893 521.766 406.498 521.564C406.104 521.361 405.672 521.26 405.202 521.26C404.68 521.26 404.216 521.388 403.81 521.644C403.416 521.889 403.106 522.236 402.882 522.684C402.658 523.132 402.546 523.654 402.546 524.252C402.546 524.86 402.658 525.388 402.882 525.836C403.117 526.284 403.437 526.63 403.842 526.876C404.248 527.11 404.706 527.228 405.218 527.228ZM416.163 528.556V516.876H418.083V528.556H416.163ZM421.064 528.556V519.932H422.552V523.628H422.376C422.376 522.774 422.488 522.054 422.712 521.468C422.946 520.881 423.298 520.438 423.768 520.14C424.237 519.83 424.818 519.676 425.512 519.676H425.592C426.658 519.676 427.453 520.012 427.976 520.684C428.498 521.356 428.76 522.337 428.76 523.628V528.556H426.888V523.372C426.888 522.774 426.717 522.294 426.376 521.932C426.034 521.558 425.565 521.372 424.968 521.372C424.36 521.372 423.869 521.564 423.496 521.948C423.122 522.321 422.936 522.822 422.936 523.452V528.556H421.064ZM440.267 528.844C439.201 528.844 438.289 528.662 437.531 528.3C436.785 527.926 436.177 527.441 435.707 526.844C435.249 526.236 434.907 525.585 434.683 524.892C434.47 524.188 434.363 523.51 434.363 522.86V522.508C434.363 521.793 434.475 521.084 434.699 520.38C434.923 519.676 435.265 519.036 435.723 518.46C436.193 517.884 436.795 517.42 437.531 517.068C438.278 516.716 439.158 516.54 440.171 516.54C441.227 516.54 442.139 516.726 442.907 517.1C443.675 517.473 444.283 517.996 444.731 518.668C445.19 519.329 445.462 520.113 445.547 521.02H443.611C443.526 520.422 443.323 519.926 443.003 519.532C442.694 519.126 442.294 518.822 441.803 518.62C441.323 518.417 440.779 518.316 440.171 518.316C439.542 518.316 438.982 518.428 438.491 518.652C438.011 518.876 437.611 519.185 437.291 519.58C436.971 519.974 436.726 520.438 436.555 520.972C436.395 521.494 436.315 522.07 436.315 522.7C436.315 523.297 436.395 523.862 436.555 524.396C436.726 524.918 436.977 525.382 437.307 525.788C437.638 526.193 438.049 526.508 438.539 526.732C439.041 526.956 439.617 527.068 440.267 527.068C441.206 527.068 441.995 526.838 442.635 526.38C443.275 525.91 443.665 525.244 443.803 524.38H445.755C445.649 525.201 445.371 525.953 444.923 526.636C444.475 527.308 443.862 527.846 443.083 528.252C442.305 528.646 441.366 528.844 440.267 528.844ZM451.705 528.844C450.948 528.844 450.281 528.721 449.705 528.476C449.129 528.22 448.644 527.884 448.249 527.468C447.855 527.052 447.556 526.582 447.353 526.06C447.151 525.526 447.049 524.977 447.049 524.412V524.092C447.049 523.526 447.151 522.977 447.353 522.444C447.567 521.91 447.871 521.436 448.265 521.02C448.671 520.593 449.161 520.257 449.737 520.012C450.313 519.766 450.969 519.644 451.705 519.644C452.441 519.644 453.092 519.766 453.657 520.012C454.233 520.257 454.724 520.593 455.129 521.02C455.535 521.436 455.839 521.91 456.041 522.444C456.255 522.977 456.361 523.526 456.361 524.092V524.412C456.361 524.977 456.26 525.526 456.057 526.06C455.855 526.582 455.556 527.052 455.161 527.468C454.767 527.884 454.281 528.22 453.705 528.476C453.129 528.721 452.463 528.844 451.705 528.844ZM451.705 527.212C452.292 527.212 452.793 527.084 453.209 526.828C453.625 526.561 453.94 526.204 454.153 525.756C454.377 525.308 454.489 524.806 454.489 524.252C454.489 523.686 454.377 523.18 454.153 522.732C453.929 522.284 453.609 521.932 453.193 521.676C452.777 521.409 452.281 521.276 451.705 521.276C451.129 521.276 450.633 521.409 450.217 521.676C449.801 521.932 449.481 522.284 449.257 522.732C449.033 523.18 448.921 523.686 448.921 524.252C448.921 524.806 449.028 525.308 449.241 525.756C449.465 526.204 449.785 526.561 450.201 526.828C450.617 527.084 451.119 527.212 451.705 527.212ZM458.501 528.556V519.932H459.989V523.628H459.813C459.813 522.774 459.925 522.054 460.149 521.468C460.384 520.881 460.736 520.438 461.205 520.14C461.674 519.83 462.256 519.676 462.949 519.676H463.029C464.096 519.676 464.89 520.012 465.413 520.684C465.936 521.356 466.197 522.337 466.197 523.628V528.556H464.325V523.372C464.325 522.774 464.154 522.294 463.813 521.932C463.472 521.558 463.002 521.372 462.405 521.372C461.797 521.372 461.306 521.564 460.933 521.948C460.56 522.321 460.373 522.822 460.373 523.452V528.556H458.501ZM472.334 528.652C471.619 528.652 471.017 528.556 470.526 528.364C470.035 528.172 469.662 527.841 469.406 527.372C469.161 526.902 469.038 526.268 469.038 525.468V517.42H470.814V525.628C470.814 526.076 470.931 526.422 471.166 526.668C471.411 526.902 471.753 527.02 472.19 527.02H473.63V528.652H472.334ZM467.614 521.324V519.932H473.63V521.324H467.614ZM475.657 528.556V519.932H477.145V523.532H477.081C477.081 522.294 477.353 521.372 477.897 520.764C478.441 520.145 479.247 519.836 480.313 519.836H480.617V521.484H480.041C479.231 521.484 478.607 521.702 478.169 522.14C477.743 522.566 477.529 523.18 477.529 523.98V528.556H475.657ZM486.252 528.844C485.495 528.844 484.828 528.721 484.252 528.476C483.676 528.22 483.191 527.884 482.796 527.468C482.401 527.052 482.103 526.582 481.9 526.06C481.697 525.526 481.596 524.977 481.596 524.412V524.092C481.596 523.526 481.697 522.977 481.9 522.444C482.113 521.91 482.417 521.436 482.812 521.02C483.217 520.593 483.708 520.257 484.284 520.012C484.86 519.766 485.516 519.644 486.252 519.644C486.988 519.644 487.639 519.766 488.204 520.012C488.78 520.257 489.271 520.593 489.676 521.02C490.081 521.436 490.385 521.91 490.588 522.444C490.801 522.977 490.908 523.526 490.908 524.092V524.412C490.908 524.977 490.807 525.526 490.604 526.06C490.401 526.582 490.103 527.052 489.708 527.468C489.313 527.884 488.828 528.22 488.252 528.476C487.676 528.721 487.009 528.844 486.252 528.844ZM486.252 527.212C486.839 527.212 487.34 527.084 487.756 526.828C488.172 526.561 488.487 526.204 488.7 525.756C488.924 525.308 489.036 524.806 489.036 524.252C489.036 523.686 488.924 523.18 488.7 522.732C488.476 522.284 488.156 521.932 487.74 521.676C487.324 521.409 486.828 521.276 486.252 521.276C485.676 521.276 485.18 521.409 484.764 521.676C484.348 521.932 484.028 522.284 483.804 522.732C483.58 523.18 483.468 523.686 483.468 524.252C483.468 524.806 483.575 525.308 483.788 525.756C484.012 526.204 484.332 526.561 484.748 526.828C485.164 527.084 485.665 527.212 486.252 527.212ZM493.144 528.556V516.876H495.032V528.556H493.144ZM492.008 518.316V516.876H495.032V518.316H492.008ZM497.446 528.556V526.3H499.622V528.556H497.446Z" fill="white"/>
<defs>
<filter id="filter0_f_1_182" x="0.800568" y="-109.555" width="657.557" height="646.111" filterUnits="userSpaceOnUse" color-interpolation-filters="sRGB">
<feFlood flood-opacity="0" result="BackgroundImageFix"/>
<feBlend mode="normal" in="SourceGraphic" in2="BackgroundImageFix" result="shape"/>
<feGaussianBlur stdDeviation="97.5" result="effect1_foregroundBlur_1_182"/>
</filter>
<filter id="filter1_i_1_182" x="215.864" y="100.5" width="227.429" height="241" filterUnits="userSpaceOnUse" color-interpolation-filters="sRGB">
<feFlood flood-opacity="0" result="BackgroundImageFix"/>
<feBlend mode="normal" in="SourceGraphic" in2="BackgroundImageFix" result="shape"/>
<feColorMatrix in="SourceAlpha" type="matrix" values="0 0 0 0 0 0 0 0 0 0 0 0 0 0 0 0 0 0 127 0" result="hardAlpha"/>
<feOffset dy="15"/>
<feGaussianBlur stdDeviation="22.5"/>
<feComposite in2="hardAlpha" operator="arithmetic" k2="-1" k3="1"/>
<feColorMatrix type="matrix" values="0 0 0 0 0.0705882 0 0 0 0 0.929412 0 0 0 0 0.222196 0 0 0 0.6 0"/>
<feBlend mode="normal" in2="shape" result="effect1_innerShadow_1_182"/>
</filter>
<filter id="filter2_i_1_182" x="262.783" y="145.5" width="136.142" height="136.127" filterUnits="userSpaceOnUse" color-interpolation-filters="sRGB">
<feFlood flood-opacity="0" result="BackgroundImageFix"/>
<feBlend mode="normal" in="SourceGraphic" in2="BackgroundImageFix" result="shape"/>
<feColorMatrix in="SourceAlpha" type="matrix" values="0 0 0 0 0 0 0 0 0 0 0 0 0 0 0 0 0 0 127 0" result="hardAlpha"/>
<feOffset/>
<feGaussianBlur stdDeviation="17.5"/>
<feComposite in2="hardAlpha" operator="arithmetic" k2="-1" k3="1"/>
<feColorMatrix type="matrix" values="0 0 0 0 0.0705882 0 0 0 0 0.929412 0 0 0 0 0.222196 0 0 0 1 0"/>
<feBlend mode="normal" in2="shape" result="effect1_innerShadow_1_182"/>
</filter>
<linearGradient id="paint0_linear_1_182" x1="276.43" y1="77.6664" x2="-19.3898" y2="180.404" gradientUnits="userSpaceOnUse">
<stop stop-color="#12ED39"/>
<stop offset="0.812027" stop-color="#12ED39" stop-opacity="0"/>
</linearGradient>
<linearGradient id="paint1_linear_1_182" x1="-133.252" y1="77.6664" x2="232.335" y2="-49.3007" gradientUnits="userSpaceOnUse">
<stop stop-color="#12ED39"/>
<stop offset="0.812027" stop-color="#12ED39" stop-opacity="0"/>
</linearGradient>
<linearGradient id="paint2_linear_1_182" x1="343.01" y1="145.5" x2="343.01" y2="224.017" gradientUnits="userSpaceOnUse">
<stop offset="0.45" stop-color="#17862B" stop-opacity="0.1"/>
<stop offset="1" stop-color="#12ED39"/>
</linearGradient>
<linearGradient id="paint3_linear_1_182" x1="217.731" y1="224.126" x2="439.731" y2="224.126" gradientUnits="userSpaceOnUse">
<stop stop-color="#DDD6FE" stop-opacity="0"/>
<stop offset="0.278114" stop-color="white"/>
<stop offset="0.714266" stop-color="white"/>
<stop offset="1" stop-color="#DDD6FE" stop-opacity="0"/>
</linearGradient>
</defs>
</svg>
