<svg width="18" height="22" viewBox="0 0 18 22" fill="none" xmlns="http://www.w3.org/2000/svg">
<path d="M0.686395 8.19356C0.966075 8.54971 1.17584 8.97707 1.31568 9.40444C1.45552 9.83181 1.52544 10.3304 1.52544 10.829C1.52544 11.3276 1.45552 11.8262 1.31568 12.2536C1.17584 12.6809 0.966075 13.1083 0.686395 13.4645C0.336795 13.963 0.406715 14.6753 0.896155 15.0315C1.3856 15.3876 2.0848 15.3164 2.4344 14.8178C2.85392 14.248 3.13359 13.6781 3.41327 12.9659C3.69295 12.2536 3.76287 11.5413 3.76287 10.829C3.76287 10.1167 3.62303 9.40444 3.41327 8.69216C3.20351 8.05111 2.85392 7.41005 2.4344 6.84023C2.0848 6.34163 1.3856 6.2704 0.896155 6.62654C0.406715 6.98269 0.336795 7.69497 0.686395 8.19356Z" fill="white"/>
<path d="M4.53199 6.12794C5.37103 7.48128 5.86047 9.11953 5.86047 10.829C5.86047 12.5385 5.37103 14.1767 4.53199 15.5301C4.18239 16.0287 4.39215 16.7409 4.88159 17.0971C5.44095 17.4532 6.07023 17.2395 6.41983 16.7409C7.46863 15.0315 8.09791 13.0371 8.09791 10.829C8.09791 8.69216 7.46863 6.62654 6.41983 4.91706C6.07023 4.41847 5.37103 4.20478 4.88159 4.56092C4.39215 4.91706 4.18239 5.55812 4.53199 6.12794Z" fill="white"/>
<path d="M8.58735 3.9911C9.77599 5.98549 10.4053 8.33602 10.4053 10.829C10.4053 13.322 9.70607 15.6725 8.58735 17.6669C8.30767 18.2367 8.44751 18.8778 9.00687 19.2339C9.56623 19.5188 10.1955 19.3764 10.5451 18.8066C11.9435 16.456 12.7126 13.7494 12.7126 10.829C12.7126 7.90865 11.9435 5.20198 10.5451 2.85145C10.2654 2.28162 9.56623 2.13917 9.00687 2.42408C8.44751 2.78022 8.30767 3.42127 8.58735 3.9911Z" fill="white"/>
<path d="M12.6427 1.85425C14.111 4.4897 15.02 7.55251 15.02 10.829C15.02 14.1055 14.1809 17.1683 12.6427 19.8038C12.363 20.3736 12.5028 21.0146 13.0622 21.3708C13.6216 21.6557 14.2508 21.5132 14.6004 20.9434C16.2785 17.9518 17.2574 14.5329 17.2574 10.829C17.2574 7.12514 16.2785 3.70619 14.6004 0.714601C14.3208 0.144776 13.6216 0.00231919 13.0622 0.287232C12.5028 0.572145 12.363 1.28443 12.6427 1.85425Z" fill="white"/>
</svg>
